<svg width="588" height="483" viewBox="0 0 588 483" fill="none" xmlns="http://www.w3.org/2000/svg">
<mask id="path-1-inside-1_8_42" fill="white">
<path fill-rule="evenodd" clip-rule="evenodd" d="M410.339 24.1627C408.112 23.8099 407.804 24.1957 408.996 25.117L407.818 25.6324L401.818 28.1324L396.318 30.6324L391.818 32.6323L386.818 36.1323L382.318 38.6323L377.318 41.6323L372.818 44.6323L368.818 48.1323L364.818 52.1323L359.818 55.1323L355.818 57.6323L350.818 60.1323L346.318 62.6323L341.818 64.6323L337.818 66.1323L332.818 68.1323L327.818 69.6322L322.818 71.1322L317.818 72.1322L311.818 73.1322L302.818 74.1322H292.318L280.818 73.1322L269.818 69.6322L260.318 66.1322L251.818 63.1322L244.318 59.6323L236.318 56.1323L230.318 53.1323L224.318 49.1323L214.318 42.6323L205.318 36.6323L195.818 31.6323L186.318 27.1324L177.318 23.1324L167.318 20.6324L155.318 19.6324L140.818 19.6324C140.818 19.6324 113.318 20.1324 132.318 24.1324C134.632 24.6196 137.555 27.7843 140.903 32.9673C107.74 32.8731 54.1506 25.0757 50.9934 19.7411C46.8977 12.8206 48.7745 66.7384 59.7986 84.7551C67.1909 96.8363 119.771 65.2866 147.841 45.2943C172.93 94.5873 211.318 212.632 211.318 212.632L215.119 221.934C127.092 246.104 51.1268 309.299 0 395.888C11.4837 408.438 26.9973 420.08 45.8332 430.5C51.8942 412.578 133.439 297.885 163.203 294.909C135.203 324.909 85.2028 422.409 82.2012 446.408C82.4063 446.869 82.2177 447.157 81.7107 447.294C137.523 469.436 211.351 482.909 292.311 482.909C294.365 482.909 296.414 482.9 298.458 482.883C307.301 446.374 314.064 359.277 307.225 324.212C327.183 339.369 336.051 437.128 336.02 481.582C370.019 479.5 402.284 475.024 431.912 468.553C422.988 423.141 387.365 317.823 364.157 279.288C391.125 289.846 450.237 411.28 468.749 459.084C522.87 442.915 564.994 419.517 588 392.031C536.198 306.246 459.807 244.032 371.558 220.962L375.818 210.632C375.818 210.632 411.118 90.1809 434.752 37.05C463.494 48.4665 506.003 61.8907 510.843 52.4853C518.837 36.95 514.379 -5.38015 511.435 0.568709C509.446 4.58758 472.337 15.2646 442.839 20.8777C445.512 16.3774 447.875 13.481 449.818 12.6324C468.137 4.63236 442.318 13.6324 442.318 13.6324L435.318 15.1324L428.818 17.1324L423.318 19.1324L415.818 22.1324L410.975 24.2511C410.756 24.2245 410.543 24.1951 410.339 24.1627Z"/>
</mask>
<path fill-rule="evenodd" clip-rule="evenodd" d="M410.339 24.1627C408.112 23.8099 407.804 24.1957 408.996 25.117L407.818 25.6324L401.818 28.1324L396.318 30.6324L391.818 32.6323L386.818 36.1323L382.318 38.6323L377.318 41.6323L372.818 44.6323L368.818 48.1323L364.818 52.1323L359.818 55.1323L355.818 57.6323L350.818 60.1323L346.318 62.6323L341.818 64.6323L337.818 66.1323L332.818 68.1323L327.818 69.6322L322.818 71.1322L317.818 72.1322L311.818 73.1322L302.818 74.1322H292.318L280.818 73.1322L269.818 69.6322L260.318 66.1322L251.818 63.1322L244.318 59.6323L236.318 56.1323L230.318 53.1323L224.318 49.1323L214.318 42.6323L205.318 36.6323L195.818 31.6323L186.318 27.1324L177.318 23.1324L167.318 20.6324L155.318 19.6324L140.818 19.6324C140.818 19.6324 113.318 20.1324 132.318 24.1324C134.632 24.6196 137.555 27.7843 140.903 32.9673C107.74 32.8731 54.1506 25.0757 50.9934 19.7411C46.8977 12.8206 48.7745 66.7384 59.7986 84.7551C67.1909 96.8363 119.771 65.2866 147.841 45.2943C172.93 94.5873 211.318 212.632 211.318 212.632L215.119 221.934C127.092 246.104 51.1268 309.299 0 395.888C11.4837 408.438 26.9973 420.08 45.8332 430.5C51.8942 412.578 133.439 297.885 163.203 294.909C135.203 324.909 85.2028 422.409 82.2012 446.408C82.4063 446.869 82.2177 447.157 81.7107 447.294C137.523 469.436 211.351 482.909 292.311 482.909C294.365 482.909 296.414 482.9 298.458 482.883C307.301 446.374 314.064 359.277 307.225 324.212C327.183 339.369 336.051 437.128 336.02 481.582C370.019 479.5 402.284 475.024 431.912 468.553C422.988 423.141 387.365 317.823 364.157 279.288C391.125 289.846 450.237 411.28 468.749 459.084C522.87 442.915 564.994 419.517 588 392.031C536.198 306.246 459.807 244.032 371.558 220.962L375.818 210.632C375.818 210.632 411.118 90.1809 434.752 37.05C463.494 48.4665 506.003 61.8907 510.843 52.4853C518.837 36.95 514.379 -5.38015 511.435 0.568709C509.446 4.58758 472.337 15.2646 442.839 20.8777C445.512 16.3774 447.875 13.481 449.818 12.6324C468.137 4.63236 442.318 13.6324 442.318 13.6324L435.318 15.1324L428.818 17.1324L423.318 19.1324L415.818 22.1324L410.975 24.2511C410.756 24.2245 410.543 24.1951 410.339 24.1627Z" fill="#F25822"/>
<path d="M408.996 25.117L410.199 27.8655L414.833 25.8377L410.831 22.7436L408.996 25.117ZM410.339 24.1627L409.869 27.1257L409.869 27.1257L410.339 24.1627ZM407.818 25.6324L408.972 28.4016L408.997 28.3914L409.021 28.3808L407.818 25.6324ZM401.818 28.1324L400.664 25.3631L400.62 25.3815L400.577 25.4013L401.818 28.1324ZM396.318 30.6324L397.537 33.3738L397.548 33.3687L397.56 33.3635L396.318 30.6324ZM391.818 32.6323L390.6 29.8909L390.335 30.0086L390.098 30.1747L391.818 32.6323ZM386.818 36.1323L388.275 38.7548L388.411 38.6792L388.539 38.59L386.818 36.1323ZM382.318 38.6323L380.861 36.0098L380.818 36.0341L380.775 36.0598L382.318 38.6323ZM377.318 41.6323L375.775 39.0598L375.714 39.0966L375.654 39.1362L377.318 41.6323ZM372.818 44.6323L371.154 42.1362L370.991 42.2452L370.843 42.3746L372.818 44.6323ZM368.818 48.1323L366.843 45.8746L366.768 45.9403L366.697 46.011L368.818 48.1323ZM364.818 52.1323L366.362 54.7048L366.678 54.5148L366.94 54.2536L364.818 52.1323ZM359.818 55.1323L358.275 52.5598L358.251 52.5738L358.228 52.5883L359.818 55.1323ZM355.818 57.6323L357.16 60.3155L357.287 60.2518L357.408 60.1763L355.818 57.6323ZM350.818 60.1323L349.477 57.449L349.418 57.4781L349.361 57.5098L350.818 60.1323ZM346.318 62.6323L347.537 65.3737L347.659 65.3195L347.775 65.2547L346.318 62.6323ZM341.818 64.6323L342.872 67.4412L342.955 67.4099L343.037 67.3737L341.818 64.6323ZM337.818 66.1323L336.765 63.3233L336.734 63.3347L336.704 63.3468L337.818 66.1323ZM332.818 68.1323L333.68 71.0057L333.808 70.9673L333.932 70.9177L332.818 68.1323ZM327.818 69.6322L326.956 66.7588L326.956 66.7588L327.818 69.6322ZM322.818 71.1322L323.407 74.074L323.545 74.0463L323.68 74.0057L322.818 71.1322ZM317.818 72.1322L318.311 75.0914L318.359 75.0835L318.407 75.074L317.818 72.1322ZM311.818 73.1322L312.15 76.1139L312.231 76.1049L312.311 76.0914L311.818 73.1322ZM302.818 74.1322V77.1322H302.984L303.15 77.1139L302.818 74.1322ZM292.318 74.1322L292.058 77.121L292.188 77.1322H292.318V74.1322ZM280.818 73.1322L279.909 75.991L280.226 76.0921L280.558 76.121L280.818 73.1322ZM269.818 69.6322L268.781 72.4473L268.845 72.4706L268.909 72.491L269.818 69.6322ZM260.318 66.1322L261.355 63.3172L261.336 63.3101L261.317 63.3033L260.318 66.1322ZM251.818 63.1322L250.55 65.8508L250.682 65.9126L250.82 65.9612L251.818 63.1322ZM244.318 59.6323L245.587 56.9137L245.554 56.8983L245.521 56.8838L244.318 59.6323ZM236.318 56.1323L234.977 58.8155L235.045 58.8499L235.116 58.8807L236.318 56.1323ZM230.318 53.1323L228.654 55.6284L228.81 55.732L228.977 55.8156L230.318 53.1323ZM224.318 49.1323L225.982 46.6361L225.968 46.6265L225.953 46.617L224.318 49.1323ZM214.318 42.6323L212.654 45.1285L212.669 45.1381L212.683 45.1476L214.318 42.6323ZM205.318 36.6323L206.982 34.1362L206.853 34.0499L206.716 33.9776L205.318 36.6323ZM195.818 31.6323L197.216 28.9776L197.16 28.9482L197.103 28.9211L195.818 31.6323ZM186.318 27.1324L187.603 24.4211L187.57 24.4056L187.537 24.3909L186.318 27.1324ZM177.318 23.1324L178.537 20.3909L178.299 20.2851L178.046 20.2219L177.318 23.1324ZM167.318 20.6324L168.046 17.7219L167.81 17.6629L167.567 17.6427L167.318 20.6324ZM155.318 19.6324L155.568 16.6427L155.443 16.6324L155.318 16.6324L155.318 19.6324ZM140.818 19.6324L140.818 16.6324L140.791 16.6324L140.764 16.6329L140.818 19.6324ZM132.318 24.1324L132.936 21.1967L132.936 21.1967L132.318 24.1324ZM140.903 32.9673L140.894 35.9672L146.422 35.9829L143.423 31.3394L140.903 32.9673ZM50.9934 19.7411L48.4117 21.2691L48.4117 21.2691L50.9934 19.7411ZM59.7986 84.7551L62.3576 83.1893L62.3576 83.1893L59.7986 84.7551ZM147.841 45.2943L150.515 43.9335L148.936 40.8315L146.101 42.8507L147.841 45.2943ZM211.318 212.632L208.465 213.56L208.499 213.665L208.541 213.767L211.318 212.632ZM215.119 221.934L215.913 224.827L219.176 223.931L217.896 220.799L215.119 221.934ZM0 395.888L-2.5833 394.363L-3.71236 396.275L-2.21326 397.914L0 395.888ZM45.8332 430.5L44.381 433.125L47.5242 434.864L48.6751 431.461L45.8332 430.5ZM163.203 294.909L165.396 296.956L170.833 291.131L162.904 291.924L163.203 294.909ZM82.2012 446.408L79.2244 446.035L79.1208 446.864L79.46 447.626L82.2012 446.408ZM81.7107 447.294L80.9293 444.397L72.2063 446.75L80.6044 450.082L81.7107 447.294ZM298.458 482.883L298.483 485.883L300.823 485.863L301.374 483.589L298.458 482.883ZM307.225 324.212L309.039 321.823L302.774 317.065L304.28 324.786L307.225 324.212ZM336.02 481.582L333.02 481.58L333.017 484.772L336.203 484.576L336.02 481.582ZM431.912 468.553L432.552 471.484L435.422 470.857L434.855 467.975L431.912 468.553ZM364.157 279.288L365.251 276.495L357.035 273.278L361.587 280.836L364.157 279.288ZM468.749 459.084L465.952 460.168L466.952 462.752L469.608 461.959L468.749 459.084ZM588 392.031L590.3 393.956L591.675 392.314L590.568 390.48L588 392.031ZM371.558 220.962L368.785 219.818L367.475 222.995L370.8 223.864L371.558 220.962ZM375.818 210.632L378.592 211.776L378.652 211.629L378.697 211.476L375.818 210.632ZM434.752 37.05L435.859 34.2619L433.181 33.1983L432.011 35.8307L434.752 37.05ZM510.843 52.4853L508.176 51.1127L508.176 51.1127L510.843 52.4853ZM511.435 0.568709L514.124 1.89938L514.124 1.89937L511.435 0.568709ZM442.839 20.8777L440.259 19.3457L436.86 25.0692L443.4 23.8248L442.839 20.8777ZM449.818 12.6324L451.019 15.3816L451.019 15.3816L449.818 12.6324ZM442.318 13.6324L442.947 16.5658L443.129 16.5266L443.306 16.4652L442.318 13.6324ZM435.318 15.1324L434.69 12.1989L434.561 12.2264L434.436 12.265L435.318 15.1324ZM428.818 17.1324L427.936 14.265L427.864 14.2872L427.793 14.313L428.818 17.1324ZM423.318 19.1324L422.293 16.313L422.248 16.3292L422.204 16.3469L423.318 19.1324ZM415.818 22.1324L414.704 19.3469L414.66 19.3647L414.616 19.3839L415.818 22.1324ZM410.975 24.2511L410.615 27.2294L411.428 27.3277L412.178 26.9996L410.975 24.2511ZM410.831 22.7436C410.584 22.5528 410.721 22.6105 410.906 22.8964C410.999 23.0384 411.297 23.5279 411.31 24.2664C411.325 25.1925 410.887 25.9948 410.277 26.4906C409.794 26.883 409.335 26.9829 409.22 27.0062C409.064 27.038 408.984 27.0335 409.031 27.0334C409.123 27.0331 409.38 27.0482 409.869 27.1257L410.808 21.1996C410.184 21.1007 409.568 21.0318 409.013 21.0334C408.736 21.0342 408.389 21.0522 408.022 21.1272C407.696 21.1937 407.08 21.3574 406.494 21.8335C405.78 22.4131 405.293 23.319 405.31 24.3679C405.325 25.2292 405.677 25.8606 405.874 26.1629C406.267 26.7692 406.812 27.2207 407.161 27.4905L410.831 22.7436ZM409.021 28.3808L410.199 27.8655L407.794 22.3686L406.616 22.8839L409.021 28.3808ZM402.972 30.9016L408.972 28.4016L406.664 22.8631L400.664 25.3631L402.972 30.9016ZM397.56 33.3635L403.06 30.8635L400.577 25.4013L395.077 27.9013L397.56 33.3635ZM393.037 35.3738L397.537 33.3738L395.1 27.8909L390.6 29.8909L393.037 35.3738ZM388.539 38.59L393.539 35.09L390.098 30.1747L385.098 33.6746L388.539 38.59ZM383.775 41.2548L388.275 38.7548L385.361 33.5098L380.861 36.0098L383.775 41.2548ZM378.862 44.2048L383.862 41.2048L380.775 36.0598L375.775 39.0598L378.862 44.2048ZM374.482 47.1285L378.982 44.1285L375.654 39.1362L371.154 42.1362L374.482 47.1285ZM370.794 50.39L374.794 46.89L370.843 42.3746L366.843 45.8746L370.794 50.39ZM366.94 54.2536L370.94 50.2536L366.697 46.011L362.697 50.0109L366.94 54.2536ZM361.362 57.7048L366.362 54.7048L363.275 49.5598L358.275 52.5598L361.362 57.7048ZM357.408 60.1763L361.408 57.6763L358.228 52.5883L354.228 55.0883L357.408 60.1763ZM352.16 62.8155L357.16 60.3155L354.477 54.949L349.477 57.449L352.16 62.8155ZM347.775 65.2547L352.275 62.7548L349.361 57.5098L344.861 60.0098L347.775 65.2547ZM343.037 67.3737L347.537 65.3737L345.1 59.8908L340.6 61.8908L343.037 67.3737ZM338.872 68.9412L342.872 67.4412L340.765 61.8233L336.765 63.3233L338.872 68.9412ZM333.932 70.9177L338.932 68.9177L336.704 63.3468L331.704 65.3468L333.932 70.9177ZM328.68 72.5057L333.68 71.0057L331.956 65.2588L326.956 66.7588L328.68 72.5057ZM323.68 74.0057L328.68 72.5057L326.956 66.7588L321.956 68.2588L323.68 74.0057ZM318.407 75.074L323.407 74.074L322.23 68.1905L317.23 69.1905L318.407 75.074ZM312.311 76.0914L318.311 75.0914L317.325 69.1731L311.325 70.1731L312.311 76.0914ZM303.15 77.1139L312.15 76.1139L311.487 70.1506L302.487 71.1506L303.15 77.1139ZM292.318 77.1322H302.818V71.1322H292.318V77.1322ZM280.558 76.121L292.058 77.121L292.578 71.1435L281.078 70.1435L280.558 76.121ZM268.909 72.491L279.909 75.991L281.728 70.2735L270.728 66.7734L268.909 72.491ZM259.281 68.9473L268.781 72.4473L270.855 66.8172L261.355 63.3172L259.281 68.9473ZM250.82 65.9612L259.32 68.9612L261.317 63.3033L252.817 60.3033L250.82 65.9612ZM243.05 62.3508L250.55 65.8508L253.087 60.4137L245.587 56.9137L243.05 62.3508ZM235.116 58.8807L243.116 62.3807L245.521 56.8838L237.521 53.3838L235.116 58.8807ZM228.977 55.8156L234.977 58.8155L237.66 53.449L231.66 50.449L228.977 55.8156ZM222.654 51.6284L228.654 55.6284L231.982 50.6361L225.982 46.6361L222.654 51.6284ZM212.683 45.1476L222.683 51.6476L225.953 46.617L215.953 40.117L212.683 45.1476ZM203.654 39.1285L212.654 45.1285L215.982 40.1361L206.982 34.1362L203.654 39.1285ZM194.421 34.2871L203.921 39.2871L206.716 33.9776L197.216 28.9776L194.421 34.2871ZM185.034 29.8436L194.534 34.3436L197.103 28.9211L187.603 24.4211L185.034 29.8436ZM176.1 25.8738L185.1 29.8738L187.537 24.3909L178.537 20.3909L176.1 25.8738ZM166.591 23.5428L176.591 26.0428L178.046 20.2219L168.046 17.7219L166.591 23.5428ZM155.069 22.622L167.069 23.622L167.567 17.6427L155.568 16.6427L155.069 22.622ZM140.818 22.6324L155.318 22.6324L155.318 16.6324L140.818 16.6324L140.818 22.6324ZM132.936 21.1967C130.605 20.7059 129.129 20.2967 128.274 19.9786C127.833 19.8147 127.696 19.7249 127.718 19.7403C127.734 19.7506 127.876 19.8456 128.046 20.0473C128.218 20.2521 128.501 20.6671 128.596 21.2856C128.825 22.7717 127.829 23.5985 127.659 23.7249C127.449 23.8804 127.357 23.879 127.595 23.8008C128.014 23.6631 128.773 23.5043 129.856 23.3538C131.967 23.0607 134.7 22.878 136.962 22.7695C138.081 22.7159 139.063 22.6814 139.764 22.6603C140.114 22.6498 140.394 22.6426 140.585 22.6381C140.68 22.6359 140.754 22.6343 140.802 22.6333C140.827 22.6328 140.845 22.6324 140.857 22.6322C140.863 22.6321 140.867 22.632 140.87 22.6319C140.871 22.6319 140.872 22.6319 140.873 22.6319C140.873 22.6319 140.873 22.6319 140.873 22.6319C140.873 22.6319 140.873 22.6319 140.818 19.6324C140.764 16.6329 140.763 16.6329 140.763 16.6329C140.763 16.6329 140.762 16.6329 140.762 16.6329C140.76 16.6329 140.759 16.6329 140.757 16.633C140.753 16.6331 140.747 16.6332 140.74 16.6333C140.726 16.6336 140.705 16.634 140.678 16.6346C140.624 16.6357 140.545 16.6374 140.443 16.6398C140.241 16.6446 139.948 16.6521 139.584 16.663C138.855 16.6849 137.837 16.7207 136.675 16.7764C134.374 16.8867 131.42 17.079 129.031 17.4109C127.864 17.5729 126.67 17.7891 125.722 18.1006C125.276 18.2471 124.646 18.4888 124.082 18.9075C123.558 19.2971 122.39 20.4071 122.666 22.1979C122.891 23.6655 123.973 24.4527 124.376 24.7232C124.92 25.0877 125.558 25.37 126.183 25.6025C127.46 26.0774 129.281 26.5588 131.7 27.068L132.936 21.1967ZM143.423 31.3394C141.698 28.6692 140.012 26.4062 138.388 24.7125C136.843 23.1016 135.008 21.6329 132.936 21.1967L131.7 27.068C131.943 27.119 132.726 27.4763 134.058 28.8653C135.31 30.1715 136.76 32.0824 138.383 34.5951L143.423 31.3394ZM48.4117 21.2691C48.9877 22.2424 49.8913 22.8985 50.5968 23.3288C51.3719 23.8017 52.2982 24.2312 53.3006 24.6273C55.3118 25.4219 57.9398 26.2018 60.9889 26.957C67.1068 28.4723 75.2435 29.9665 84.2612 31.2877C102.294 33.9296 124.131 35.9197 140.894 35.9672L140.911 29.9673C124.512 29.9207 102.972 27.9649 85.1309 25.351C76.2112 24.0442 68.2859 22.583 62.4314 21.133C59.4944 20.4055 57.1587 19.7003 55.5054 19.0471C54.6755 18.7192 54.0943 18.4341 53.7214 18.2067C53.2789 17.9367 53.3938 17.9067 53.5752 18.2132L48.4117 21.2691ZM62.3576 83.1893C59.867 79.1189 57.7676 72.7657 56.1246 65.3719C54.4969 58.0472 53.3732 49.9671 52.714 42.6283C52.0534 35.2732 51.8693 28.7726 52.087 24.6028C52.2021 22.3978 52.4161 21.2247 52.5511 20.8663C52.5755 20.8015 52.5251 20.9702 52.332 21.2084C52.1378 21.4479 51.5667 22.0288 50.5705 22.1203C49.5695 22.2122 48.9005 21.7405 48.666 21.538C48.4358 21.3391 48.3639 21.1883 48.4117 21.2691L53.5752 18.2132C53.367 17.8614 53.0508 17.397 52.5881 16.9973C52.1212 16.594 51.2316 16.0344 50.022 16.1454C48.8173 16.256 48.0496 16.9631 47.6712 17.4299C47.2939 17.8954 47.0714 18.3925 46.9363 18.7513C46.433 20.0872 46.2078 22.1319 46.0951 24.29C45.8573 28.8463 46.0634 35.6536 46.7381 43.165C47.4142 50.6927 48.5706 59.0375 50.2675 66.6734C51.9489 74.2401 54.2182 81.3829 57.2396 86.3208L62.3576 83.1893ZM146.101 42.8507C132.146 52.7897 112.116 65.5865 94.7133 74.3743C85.9855 78.7816 78.0846 82.0947 72.012 83.5838C68.9604 84.3321 66.5879 84.5635 64.8975 84.368C63.2497 84.1774 62.6368 83.6455 62.3576 83.1893L57.2396 86.3208C58.8085 88.8849 61.4558 90.0099 64.2081 90.3282C66.9177 90.6417 70.0851 90.2341 73.441 89.4112C80.1833 87.7578 88.5679 84.1992 97.4179 79.7302C115.171 70.7654 135.466 57.7913 149.582 47.7379L146.101 42.8507ZM211.318 212.632C214.171 211.704 214.171 211.704 214.171 211.703C214.17 211.702 214.17 211.7 214.169 211.698C214.168 211.695 214.166 211.689 214.164 211.682C214.159 211.667 214.152 211.646 214.143 211.617C214.124 211.559 214.096 211.474 214.059 211.361C213.985 211.135 213.876 210.799 213.732 210.36C213.444 209.481 213.018 208.187 212.468 206.522C211.368 203.193 209.768 198.384 207.771 192.459C203.776 180.61 198.187 164.297 191.813 146.44C179.087 110.785 163.159 68.7758 150.515 43.9335L145.168 46.6551C157.612 71.1059 173.423 112.766 186.163 148.457C192.522 166.272 198.098 182.551 202.085 194.376C204.079 200.288 205.674 205.086 206.771 208.405C207.32 210.064 207.744 211.354 208.03 212.229C208.173 212.666 208.282 212.999 208.355 213.223C208.392 213.335 208.419 213.419 208.438 213.476C208.447 213.504 208.454 213.525 208.458 213.539C208.461 213.546 208.462 213.551 208.464 213.555C208.464 213.557 208.465 213.558 208.465 213.559C208.465 213.559 208.465 213.56 211.318 212.632ZM217.896 220.799L214.095 211.497L208.541 213.767L212.342 223.068L217.896 220.799ZM214.325 219.041C125.423 243.451 48.8691 307.222 -2.5833 394.363L2.5833 397.414C53.3845 311.375 128.761 248.757 215.913 224.827L214.325 219.041ZM-2.21326 397.914C9.5449 410.763 25.3418 422.592 44.381 433.125L47.2854 427.875C28.6529 417.567 13.4225 406.113 2.21326 393.863L-2.21326 397.914ZM48.6751 431.461C49.321 429.551 51.1055 426.042 53.9791 421.176C56.8081 416.384 60.5728 410.474 65.0327 403.846C73.9509 390.593 85.5956 374.547 97.9781 358.966C110.37 343.375 123.449 328.314 135.237 316.994C141.135 311.331 146.65 306.662 151.548 303.337C156.522 299.959 160.542 298.19 163.501 297.894L162.904 291.924C158.422 292.372 153.384 294.838 148.178 298.373C142.895 301.959 137.109 306.878 131.082 312.667C119.02 324.249 105.754 339.54 93.2809 355.233C80.7992 370.939 69.0609 387.112 60.0547 400.497C55.5523 407.188 51.7194 413.202 48.8125 418.125C45.9502 422.973 43.8606 426.968 42.9913 429.539L48.6751 431.461ZM161.01 292.862C146.708 308.185 127.049 340.385 110.673 371.512C102.457 387.128 95.0133 402.577 89.4277 415.652C83.8953 428.602 80.0343 439.56 79.2244 446.035L85.1781 446.78C85.869 441.256 89.3835 431.027 94.9453 418.009C100.454 405.115 107.823 389.814 115.982 374.306C132.356 343.183 151.697 311.633 165.396 296.956L161.01 292.862ZM79.46 447.626C79.3452 447.368 79.0506 446.465 79.6263 445.47C80.1249 444.608 80.8733 444.412 80.9293 444.397L82.4921 450.19C83.0551 450.038 84.1513 449.63 84.8197 448.475C85.5653 447.186 85.2624 445.908 84.9425 445.189L79.46 447.626ZM80.6044 450.082C136.833 472.39 211.049 485.909 292.311 485.909V479.909C211.654 479.909 138.212 466.482 82.817 444.505L80.6044 450.082ZM292.311 485.909C294.373 485.909 296.431 485.9 298.483 485.883L298.433 479.883C296.397 479.9 294.356 479.909 292.311 479.909V485.909ZM301.374 483.589C305.856 465.087 309.771 433.985 311.716 403.195C313.658 372.464 313.669 341.583 310.169 323.638L304.28 324.786C307.619 341.906 307.669 372.106 305.728 402.817C303.792 433.469 299.904 464.171 295.542 482.177L301.374 483.589ZM305.41 326.601C307.384 328.1 309.456 330.825 311.522 334.868C313.566 338.865 315.489 343.919 317.277 349.815C320.854 361.606 323.807 376.473 326.15 392.349C330.837 424.093 333.035 459.499 333.02 481.58L339.02 481.584C339.036 459.211 336.816 423.511 332.086 391.473C329.722 375.458 326.717 360.265 323.019 348.073C321.17 341.979 319.126 336.561 316.865 332.137C314.627 327.759 312.055 324.113 309.039 321.823L305.41 326.601ZM336.203 484.576C370.346 482.486 402.764 477.99 432.552 471.484L431.271 465.622C401.803 472.059 369.691 476.515 335.836 478.588L336.203 484.576ZM434.855 467.975C430.352 445.059 419.161 407.22 406.221 370.348C393.297 333.519 378.504 297.296 366.727 277.74L361.587 280.836C373.017 299.815 387.64 335.519 400.56 372.335C413.465 409.11 424.547 446.634 428.968 469.132L434.855 467.975ZM363.063 282.082C365.812 283.158 369.316 285.821 373.467 290.158C377.56 294.436 382.058 300.102 386.823 306.845C396.35 320.324 406.782 337.872 416.988 356.651C437.399 394.21 456.748 436.402 465.952 460.168L471.547 458.001C462.238 433.962 442.775 391.536 422.26 353.786C412.002 334.912 401.443 317.134 391.723 303.382C386.865 296.508 382.176 290.581 377.802 286.01C373.486 281.499 369.244 278.058 365.251 276.495L363.063 282.082ZM469.608 461.959C523.973 445.717 566.749 422.094 590.3 393.956L585.7 390.105C563.239 416.94 521.767 440.114 467.89 456.21L469.608 461.959ZM590.568 390.48C538.434 304.145 461.447 241.36 372.317 218.059L370.8 223.864C458.167 246.704 533.962 308.346 585.432 393.582L590.568 390.48ZM373.045 209.488L368.785 219.818L374.332 222.106L378.592 211.776L373.045 209.488ZM432.011 35.8307C420.119 62.5648 405.341 106.107 393.565 142.85C387.67 161.245 382.514 177.977 378.832 190.11C376.991 196.177 375.519 201.095 374.506 204.497C374 206.198 373.608 207.52 373.343 208.417C373.211 208.865 373.11 209.208 373.042 209.438C373.008 209.554 372.983 209.641 372.965 209.699C372.957 209.729 372.95 209.751 372.946 209.766C372.944 209.773 372.942 209.779 372.941 209.782C372.941 209.784 372.94 209.786 372.94 209.787C372.94 209.788 372.939 209.788 375.818 210.632C378.697 211.476 378.697 211.475 378.698 211.475C378.698 211.474 378.698 211.472 378.699 211.471C378.7 211.467 378.701 211.462 378.703 211.454C378.708 211.44 378.714 211.418 378.722 211.39C378.739 211.332 378.765 211.246 378.798 211.131C378.866 210.903 378.966 210.562 379.098 210.116C379.361 209.223 379.751 207.905 380.257 206.209C381.267 202.816 382.736 197.908 384.574 191.853C388.249 179.741 393.396 163.039 399.279 144.681C411.062 107.915 425.751 64.6661 437.493 38.2692L432.011 35.8307ZM508.176 51.1127C508.081 51.2968 507.745 51.7394 506.491 52.1202C505.239 52.5005 503.425 52.7014 501.021 52.6477C496.231 52.5406 489.813 51.4476 482.47 49.6609C467.833 46.0992 450.163 39.9435 435.859 34.2619L433.644 39.8381C448.082 45.573 466.038 51.8376 481.051 55.4908C488.534 57.3115 495.447 58.5246 500.887 58.6462C503.598 58.7067 506.124 58.5024 508.235 57.8613C510.344 57.2205 512.396 56.0252 513.511 53.858L508.176 51.1127ZM514.124 1.89937C514.123 1.89952 514.106 1.93564 514.066 1.9951C514.027 2.05283 513.951 2.15711 513.829 2.27863C513.588 2.51764 513.043 2.93741 512.203 2.99397C511.351 3.05132 510.735 2.69952 510.436 2.46428C510.161 2.2478 510.043 2.052 510.041 2.04877C510.036 2.03964 510.138 2.2194 510.299 2.72723C510.448 3.1962 510.609 3.82058 510.772 4.60157C511.433 7.75478 512.005 12.7943 512.243 18.5934C512.48 24.373 512.38 30.7805 511.74 36.6579C511.092 42.6043 509.92 47.7235 508.176 51.1127L513.511 53.858C515.764 49.4795 517.032 43.4817 517.705 37.3077C518.385 31.0648 518.485 24.3487 518.238 18.3475C517.993 12.3657 517.398 6.96718 516.645 3.37112C516.295 1.70314 515.83 -0.0152554 515.124 -1.1401C514.928 -1.45257 514.616 -1.88164 514.146 -2.25085C513.653 -2.63882 512.844 -3.06279 511.8 -2.99249C510.767 -2.92298 510.03 -2.40513 509.601 -1.97832C509.185 -1.56531 508.918 -1.10857 508.746 -0.761951L514.124 1.89937ZM443.4 23.8248C458.247 20.9995 474.994 16.9038 488.297 13.0042C494.942 11.0562 500.784 9.14101 505.121 7.44123C507.28 6.59465 509.14 5.77352 510.561 4.99972C511.269 4.61417 511.935 4.20459 512.496 3.77031C512.997 3.383 513.694 2.76754 514.124 1.89938L508.746 -0.761957C508.927 -1.12776 509.101 -1.18885 508.825 -0.975491C508.61 -0.809098 508.246 -0.571721 507.692 -0.269739C506.587 0.331522 504.991 1.04774 502.931 1.85498C498.829 3.46285 493.177 5.32129 486.609 7.24649C473.486 11.0933 456.929 15.1428 442.278 17.9305L443.4 23.8248ZM448.618 9.8831C447.004 10.5879 445.565 11.9536 444.303 13.458C442.993 15.0213 441.64 17.0206 440.259 19.3457L445.418 22.4096C446.71 20.2345 447.876 18.5354 448.901 17.3133C449.975 16.0322 450.69 15.5254 451.019 15.3816L448.618 9.8831ZM442.318 13.6324C443.306 16.4652 443.306 16.4652 443.306 16.4651C443.306 16.4651 443.306 16.465 443.307 16.4649C443.307 16.4646 443.308 16.4643 443.31 16.4638C443.313 16.4627 443.317 16.4612 443.323 16.4591C443.335 16.455 443.353 16.4487 443.377 16.4405C443.424 16.424 443.495 16.3996 443.586 16.3679C443.769 16.3046 444.035 16.2126 444.367 16.0982C445.033 15.8693 445.964 15.5511 447.024 15.1942C449.152 14.4774 451.768 13.6157 453.8 13.0057C454.831 12.6962 455.64 12.4736 456.143 12.3624C456.442 12.2963 456.447 12.3124 456.302 12.3175C456.249 12.3194 456.122 12.3219 455.951 12.3024C455.816 12.2869 455.438 12.2359 455.001 12.0141C454.523 11.7719 453.736 11.1863 453.468 10.0711C453.223 9.0536 453.58 8.26742 453.749 7.96174C453.933 7.62899 454.136 7.41985 454.213 7.34378C454.308 7.24959 454.383 7.19084 454.41 7.17001C454.463 7.12946 454.468 7.13134 454.383 7.18233C454.221 7.27988 453.919 7.44456 453.422 7.69103C452.441 8.17771 450.894 8.88899 448.618 9.8831L451.019 15.3816C453.322 14.3757 454.975 13.6183 456.089 13.0659C456.639 12.7928 457.107 12.5454 457.473 12.3256C457.653 12.2178 457.861 12.0847 458.061 11.9313C458.159 11.8562 458.654 11.4902 459 10.8655C459.188 10.5246 459.552 9.70843 459.301 8.66585C459.026 7.52552 458.221 6.91975 457.713 6.66215C457.245 6.42488 456.824 6.36317 456.636 6.34152C456.411 6.31576 456.219 6.31669 456.09 6.32123C455.64 6.33711 455.167 6.43322 454.848 6.50389C454.114 6.6661 453.126 6.94355 452.075 7.25899C449.943 7.89906 447.249 8.78734 445.109 9.508C444.034 9.86985 443.091 10.1923 442.416 10.4243C442.079 10.5404 441.808 10.6339 441.622 10.6985C441.528 10.7309 441.456 10.756 441.407 10.7731C441.382 10.7816 441.363 10.7882 441.351 10.7926C441.344 10.7948 441.339 10.7965 441.336 10.7977C441.334 10.7983 441.333 10.7987 441.332 10.799C441.332 10.7992 441.331 10.7993 441.331 10.7994C441.331 10.7995 441.331 10.7995 442.318 13.6324ZM435.947 18.0658L442.947 16.5658L441.69 10.6989L434.69 12.1989L435.947 18.0658ZM429.701 19.9997L436.201 17.9997L434.436 12.265L427.936 14.265L429.701 19.9997ZM424.344 21.9517L429.844 19.9517L427.793 14.313L422.293 16.313L424.344 21.9517ZM416.932 24.9178L424.432 21.9178L422.204 16.3469L414.704 19.3469L416.932 24.9178ZM412.178 26.9996L417.021 24.8808L414.616 19.3839L409.773 21.5027L412.178 26.9996ZM409.869 27.1257C410.113 27.1643 410.362 27.1988 410.615 27.2294L411.335 21.2728C411.149 21.2503 410.974 21.2258 410.808 21.1996L409.869 27.1257Z" fill="black" mask="url(#path-1-inside-1_8_42)"/>
</svg>
