<svg width="1381" height="945" viewBox="0 0 1381 945" fill="none" xmlns="http://www.w3.org/2000/svg">
<mask id="path-1-inside-1_10_45" fill="white">
<path fill-rule="evenodd" clip-rule="evenodd" d="M828 8.1134C824.932 11.8835 821.883 16.235 818.867 21.0613C848.515 15.5006 886.424 4.63186 888.435 0.56871C891.379 -5.38015 895.837 36.95 887.843 52.4853C882.913 62.0659 838.897 47.9584 810.16 36.4142C779.72 94.9259 754.252 193.231 749.299 212.983C837.234 236.206 913.343 298.312 965 383.857C941.994 411.343 899.87 434.742 845.749 450.911C827.237 403.106 768.125 281.673 741.157 271.115C764.365 309.65 799.988 414.967 808.912 460.379C779.284 466.851 747.019 471.327 713.02 473.408C713.051 428.954 704.183 331.196 684.225 316.038C691.064 351.103 684.301 438.201 675.458 474.709C673.414 474.727 671.365 474.735 669.311 474.735C588.351 474.735 514.523 461.262 458.711 439.12C459.218 438.983 459.406 438.695 459.201 438.234C462.203 414.235 512.203 316.735 540.203 286.735C510.439 289.712 428.894 404.405 422.833 422.326C403.997 411.906 388.484 400.265 377 387.715C427.86 301.577 503.299 238.591 590.74 214.142C585.583 196.551 552.373 85.1992 524.312 37.4972C496.115 57.506 444.145 88.5871 436.799 76.5814C425.774 58.5647 423.898 4.64697 427.993 11.5675C431.081 16.7852 482.418 24.3592 515.696 24.7765C512.274 20.5812 508.995 17.7109 505.928 16.5C524.443 14.0423 538.501 15.2357 549.035 17.9513C561.476 21.1583 572.777 28.1327 584.06 35.0962C592.198 40.1186 600.326 45.1354 608.867 48.7291L628.911 57.1628C654.438 67.9038 683.277 67.5773 708.554 56.2611L750.025 37.6954C753.291 36.2333 756.458 34.6017 759.59 32.8714C772.832 25.5564 810.817 5.65874 828 8.1134Z"/>
</mask>
<path fill-rule="evenodd" clip-rule="evenodd" d="M828 8.1134C824.932 11.8835 821.883 16.235 818.867 21.0613C848.515 15.5006 886.424 4.63186 888.435 0.56871C891.379 -5.38015 895.837 36.95 887.843 52.4853C882.913 62.0659 838.897 47.9584 810.16 36.4142C779.72 94.9259 754.252 193.231 749.299 212.983C837.234 236.206 913.343 298.312 965 383.857C941.994 411.343 899.87 434.742 845.749 450.911C827.237 403.106 768.125 281.673 741.157 271.115C764.365 309.65 799.988 414.967 808.912 460.379C779.284 466.851 747.019 471.327 713.02 473.408C713.051 428.954 704.183 331.196 684.225 316.038C691.064 351.103 684.301 438.201 675.458 474.709C673.414 474.727 671.365 474.735 669.311 474.735C588.351 474.735 514.523 461.262 458.711 439.12C459.218 438.983 459.406 438.695 459.201 438.234C462.203 414.235 512.203 316.735 540.203 286.735C510.439 289.712 428.894 404.405 422.833 422.326C403.997 411.906 388.484 400.265 377 387.715C427.86 301.577 503.299 238.591 590.74 214.142C585.583 196.551 552.373 85.1992 524.312 37.4972C496.115 57.506 444.145 88.5871 436.799 76.5814C425.774 58.5647 423.898 4.64697 427.993 11.5675C431.081 16.7852 482.418 24.3592 515.696 24.7765C512.274 20.5812 508.995 17.7109 505.928 16.5C524.443 14.0423 538.501 15.2357 549.035 17.9513C561.476 21.1583 572.777 28.1327 584.06 35.0962C592.198 40.1186 600.326 45.1354 608.867 48.7291L628.911 57.1628C654.438 67.9038 683.277 67.5773 708.554 56.2611L750.025 37.6954C753.291 36.2333 756.458 34.6017 759.59 32.8714C772.832 25.5564 810.817 5.65874 828 8.1134Z" fill="#F25822"/>
<path d="M818.867 21.0613L816.323 19.4714L812.698 25.2706L819.42 24.0099L818.867 21.0613ZM828 8.1134L830.327 10.0069L833.674 5.89353L828.424 5.14355L828 8.1134ZM888.435 0.56871L891.124 1.89938L891.124 1.89937L888.435 0.56871ZM887.843 52.4853L885.176 51.1127L885.176 51.1127L887.843 52.4853ZM810.16 36.4142L811.278 33.6305L808.754 32.6164L807.499 35.0297L810.16 36.4142ZM749.299 212.983L746.389 212.253L745.668 215.127L748.533 215.883L749.299 212.983ZM965 383.857L967.3 385.783L968.675 384.14L967.568 382.307L965 383.857ZM845.749 450.911L842.952 451.994L843.952 454.579L846.608 453.785L845.749 450.911ZM741.157 271.115L742.251 268.321L734.035 265.105L738.587 272.662L741.157 271.115ZM808.912 460.379L809.552 463.31L812.422 462.684L811.855 459.801L808.912 460.379ZM713.02 473.408L710.02 473.406L710.017 476.598L713.203 476.403L713.02 473.408ZM684.225 316.038L686.039 313.649L679.774 308.891L681.28 316.613L684.225 316.038ZM675.458 474.709L675.483 477.709L677.823 477.69L678.374 475.416L675.458 474.709ZM458.711 439.12L457.929 436.224L449.206 438.577L457.604 441.909L458.711 439.12ZM459.201 438.234L456.224 437.862L456.121 438.69L456.46 439.453L459.201 438.234ZM540.203 286.735L542.396 288.782L547.833 282.957L539.904 283.75L540.203 286.735ZM422.833 422.326L421.381 424.951L424.524 426.69L425.675 423.287L422.833 422.326ZM377 387.715L374.417 386.189L373.288 388.102L374.787 389.74L377 387.715ZM590.74 214.142L591.548 217.031L594.474 216.213L593.619 213.298L590.74 214.142ZM524.312 37.4972L526.898 35.9761L525.241 33.1595L522.576 35.0506L524.312 37.4972ZM436.799 76.5814L439.358 75.0156L439.358 75.0156L436.799 76.5814ZM427.993 11.5675L425.412 13.0955L425.412 13.0955L427.993 11.5675ZM515.696 24.7765L515.659 27.7762L522.08 27.8568L518.021 22.8802L515.696 24.7765ZM505.928 16.5L505.534 13.5261L494.08 15.0465L504.826 19.2903L505.928 16.5ZM549.035 17.9513L549.784 15.0463L549.784 15.0463L549.035 17.9513ZM584.06 35.0962L582.484 37.6492L582.484 37.6492L584.06 35.0962ZM608.867 48.7291L607.704 51.4943L607.704 51.4943L608.867 48.7291ZM628.911 57.1628L630.074 54.3976L630.074 54.3976L628.911 57.1628ZM708.554 56.2611L707.328 53.523L707.328 53.523L708.554 56.2611ZM750.025 37.6954L748.8 34.9572L748.8 34.9572L750.025 37.6954ZM759.59 32.8714L761.041 35.4974L761.041 35.4974L759.59 32.8714ZM821.411 22.6513C824.377 17.9044 827.355 13.6591 830.327 10.0069L825.673 6.21991C822.509 10.1079 819.389 14.5656 816.323 19.4714L821.411 22.6513ZM885.746 -0.761955C885.928 -1.13024 886.103 -1.18933 885.819 -0.970401C885.597 -0.799589 885.223 -0.557395 884.656 -0.250278C883.527 0.361143 881.896 1.08876 879.796 1.90794C875.612 3.53965 869.853 5.42485 863.174 7.37355C849.829 11.2676 833.036 15.3515 818.314 18.1127L819.42 24.0099C834.346 21.2105 851.331 17.0797 864.855 13.1333C871.612 11.1619 877.559 9.22048 881.976 7.49777C884.176 6.63973 886.068 5.80817 887.513 5.02577C888.233 4.63598 888.908 4.2226 889.477 3.7851C889.983 3.39571 890.69 2.77555 891.124 1.89938L885.746 -0.761955ZM890.511 53.858C892.764 49.4795 894.032 43.4817 894.705 37.3077C895.385 31.0648 895.485 24.3487 895.238 18.3475C894.993 12.3657 894.398 6.96718 893.645 3.37112C893.295 1.70314 892.83 -0.0152545 892.124 -1.1401C891.928 -1.45257 891.616 -1.88164 891.146 -2.25085C890.653 -2.63881 889.844 -3.06279 888.8 -2.99249C887.767 -2.92298 887.03 -2.40513 886.601 -1.97832C886.185 -1.56531 885.918 -1.10857 885.746 -0.76195L891.124 1.89937C891.123 1.89952 891.106 1.93564 891.066 1.9951C891.027 2.05283 890.951 2.15711 890.829 2.27863C890.588 2.51764 890.043 2.93741 889.203 2.99397C888.351 3.05132 887.735 2.69952 887.436 2.46428C887.161 2.2478 887.043 2.052 887.041 2.04878C887.036 2.03964 887.138 2.2194 887.299 2.72723C887.448 3.1962 887.609 3.82058 887.772 4.60157C888.433 7.75478 889.005 12.7943 889.243 18.5934C889.48 24.373 889.38 30.7805 888.74 36.6579C888.092 42.6043 886.92 47.7235 885.176 51.1127L890.511 53.858ZM809.042 39.198C823.48 44.9981 841.809 51.4651 857.207 55.2834C864.882 57.1866 871.989 58.473 877.578 58.6381C880.363 58.7204 882.953 58.532 885.114 57.8974C887.269 57.2644 889.375 56.0658 890.511 53.858L885.176 51.1127C885.079 51.3 884.731 51.7563 883.423 52.1406C882.121 52.5231 880.239 52.7142 877.755 52.6408C872.807 52.4945 866.189 51.3289 858.651 49.4598C843.624 45.7334 825.577 39.3746 811.278 33.6305L809.042 39.198ZM752.208 213.713C757.176 193.903 782.571 95.9459 812.822 37.7988L807.499 35.0297C776.869 93.9059 751.327 192.558 746.389 212.253L752.208 213.713ZM967.568 382.307C915.58 296.213 838.877 233.538 750.065 210.082L748.533 215.883C835.591 238.875 911.106 300.411 962.432 385.408L967.568 382.307ZM846.608 453.785C900.973 437.543 943.749 413.92 967.3 385.783L962.7 381.932C940.239 408.766 898.767 431.94 844.89 448.036L846.608 453.785ZM740.063 273.908C742.812 274.984 746.316 277.647 750.467 281.985C754.56 286.262 759.058 291.929 763.823 298.671C773.35 312.15 783.782 329.699 793.988 348.478C814.399 386.036 833.748 428.229 842.952 451.994L848.547 449.827C839.238 425.788 819.775 383.362 799.26 345.613C789.002 326.738 778.443 308.961 768.723 295.208C763.865 288.334 759.176 282.408 754.802 277.837C750.486 273.326 746.244 269.885 742.251 268.321L740.063 273.908ZM811.855 459.801C807.352 436.886 796.161 399.046 783.221 362.175C770.297 325.345 755.504 289.123 743.727 269.567L738.587 272.662C750.017 291.642 764.64 327.345 777.56 364.162C790.465 400.936 801.547 438.461 805.968 460.958L811.855 459.801ZM713.203 476.403C747.346 474.312 779.764 469.817 809.552 463.31L808.271 457.449C778.803 463.885 746.691 468.341 712.836 470.414L713.203 476.403ZM682.41 318.427C684.384 319.926 686.456 322.652 688.522 326.694C690.566 330.691 692.489 335.745 694.277 341.641C697.854 353.432 700.807 368.299 703.15 384.175C707.837 415.919 710.035 451.325 710.02 473.406L716.02 473.411C716.036 451.037 713.816 415.337 709.086 383.299C706.722 367.284 703.717 352.091 700.019 339.9C698.17 333.805 696.126 328.387 693.865 323.963C691.627 319.585 689.055 315.94 686.039 313.649L682.41 318.427ZM678.374 475.416C682.856 456.913 686.771 425.812 688.716 395.022C690.658 364.29 690.669 333.409 687.169 315.464L681.28 316.613C684.619 333.732 684.669 363.933 682.728 394.643C680.792 425.295 676.904 455.997 672.542 474.003L678.374 475.416ZM669.311 477.735C671.373 477.735 673.431 477.727 675.483 477.709L675.433 471.71C673.397 471.727 671.356 471.735 669.311 471.735V477.735ZM457.604 441.909C513.833 464.216 588.049 477.735 669.311 477.735V471.735C588.654 471.735 515.212 458.308 459.817 436.331L457.604 441.909ZM456.46 439.453C456.345 439.195 456.051 438.291 456.626 437.296C457.125 436.435 457.873 436.239 457.929 436.224L459.492 442.016C460.055 441.865 461.151 441.456 461.82 440.301C462.565 439.012 462.262 437.735 461.942 437.015L456.46 439.453ZM538.01 284.688C523.708 300.012 504.049 332.211 487.673 363.338C479.457 378.955 472.013 394.404 466.428 407.478C460.895 420.428 457.034 431.386 456.224 437.862L462.178 438.606C462.869 433.082 466.384 422.854 471.945 409.835C477.454 396.941 484.823 381.641 492.982 366.132C509.356 335.01 528.697 303.459 542.396 288.782L538.01 284.688ZM425.675 423.287C426.321 421.377 428.106 417.869 430.979 413.002C433.808 408.211 437.573 402.301 442.033 395.673C450.951 382.419 462.596 366.373 474.978 350.793C487.37 335.201 500.449 320.141 512.237 308.821C518.135 303.158 523.65 298.488 528.548 295.163C533.522 291.786 537.542 290.016 540.501 289.72L539.904 283.75C535.422 284.198 530.384 286.664 525.178 290.199C519.895 293.786 514.109 298.705 508.082 304.493C496.02 316.075 482.754 331.366 470.281 347.06C457.799 362.765 446.061 378.939 437.055 392.323C432.552 399.015 428.719 405.028 425.813 409.951C422.95 414.799 420.861 418.795 419.991 421.365L425.675 423.287ZM374.787 389.74C386.545 402.59 402.342 414.419 421.381 424.951L424.285 419.701C405.653 409.393 390.423 397.94 379.213 385.689L374.787 389.74ZM589.932 211.253C501.623 235.945 425.6 299.503 374.417 386.189L379.583 389.24C430.119 303.651 504.975 241.238 591.548 217.031L589.932 211.253ZM521.726 39.0183C535.586 62.5802 550.82 102.079 563.28 138.092C575.712 174.027 585.289 206.212 587.861 214.986L593.619 213.298C591.034 204.481 581.427 172.194 568.95 136.13C556.5 100.144 541.098 60.1162 526.898 35.9761L521.726 39.0183ZM434.24 78.1472C435.798 80.6945 438.423 81.8223 441.156 82.1485C443.846 82.4694 446.987 82.075 450.313 81.2687C456.996 79.6489 465.305 76.141 474.084 71.7247C491.696 62.8654 511.871 50.0041 526.048 39.9438L522.576 35.0506C508.556 44.9991 488.647 57.6827 471.388 66.3647C462.732 70.7191 454.909 73.981 448.9 75.4376C445.88 76.1695 443.536 76.3899 441.867 76.1908C440.242 75.9969 439.635 75.4697 439.358 75.0156L434.24 78.1472ZM430.575 10.0396C430.367 9.68778 430.051 9.22333 429.588 8.82365C429.121 8.42039 428.232 7.86075 427.022 7.97181C425.817 8.08241 425.05 8.7895 424.671 9.25629C424.294 9.72173 424.071 10.2188 423.936 10.5776C423.433 11.9136 423.208 13.9582 423.095 16.1163C422.857 20.6727 423.063 27.48 423.738 34.9914C424.414 42.519 425.571 50.8639 427.267 58.4998C428.949 66.0665 431.218 73.2092 434.24 78.1472L439.358 75.0156C436.867 70.9453 434.768 64.592 433.125 57.1982C431.497 49.8736 430.373 41.7934 429.714 34.4546C429.053 27.0996 428.869 20.599 429.087 16.4291C429.202 14.2241 429.416 13.0511 429.551 12.6927C429.576 12.6279 429.525 12.7966 429.332 13.0348C429.138 13.2743 428.567 13.8552 427.571 13.9467C426.569 14.0386 425.9 13.5668 425.666 13.3643C425.436 13.1655 425.364 13.0147 425.412 13.0955L430.575 10.0396ZM515.734 21.7767C499.262 21.5702 478.248 19.5882 460.967 17.0051C452.325 15.7135 444.686 14.2814 439.052 12.8646C436.225 12.1537 433.984 11.4664 432.4 10.8315C431.605 10.5128 431.052 10.2372 430.699 10.0191C430.28 9.76053 430.396 9.7368 430.575 10.0396L425.412 13.0955C425.977 14.0504 426.856 14.6973 427.545 15.1232C428.299 15.5895 429.198 16.012 430.167 16.4006C432.112 17.1802 434.648 17.9439 437.588 18.6834C443.488 20.1672 451.342 21.633 460.08 22.9392C477.559 25.5519 498.852 27.5655 515.659 27.7762L515.734 21.7767ZM504.826 19.2903C507.167 20.2145 510.048 22.5978 513.371 26.6727L518.021 22.8802C514.501 18.5646 510.822 15.2072 507.03 13.7097L504.826 19.2903ZM549.784 15.0463C538.824 12.2208 524.372 11.0254 505.534 13.5261L506.323 19.4739C524.514 17.0592 538.178 18.2506 548.287 20.8563L549.784 15.0463ZM585.635 32.5433C574.43 25.6279 562.742 18.3866 549.784 15.0463L548.287 20.8563C560.21 23.93 571.123 30.6375 582.484 37.6492L585.635 32.5433ZM610.031 45.964C601.741 42.4761 593.811 37.5892 585.635 32.5433L582.484 37.6492C590.584 42.6481 598.911 47.7947 607.704 51.4943L610.031 45.964ZM630.074 54.3976L610.031 45.964L607.704 51.4943L627.747 59.928L630.074 54.3976ZM707.328 53.523C682.809 64.4997 654.836 64.8164 630.074 54.3976L627.747 59.928C654.04 70.9912 683.744 70.6549 709.78 58.9993L707.328 53.523ZM748.8 34.9572L707.328 53.523L709.78 58.9993L751.251 40.4335L748.8 34.9572ZM758.14 30.2455C755.057 31.9487 751.967 33.5391 748.8 34.9572L751.251 40.4335C754.615 38.9274 757.86 37.2547 761.041 35.4974L758.14 30.2455ZM828.424 5.14355C823.523 4.44336 817.456 5.35264 811.158 7.0172C804.789 8.7004 797.876 11.2422 791.156 14.0625C777.713 19.7049 764.799 26.5667 758.14 30.2455L761.041 35.4974C767.623 31.8611 780.323 25.1166 793.478 19.595C800.058 16.8333 806.691 14.4038 812.691 12.818C818.761 11.2135 823.886 10.5561 827.576 11.0833L828.424 5.14355Z" fill="black" mask="url(#path-1-inside-1_10_45)"/>
<mask id="path-3-inside-2_10_45" fill="white">
<path d="M75.9 849.66L36.96 850.98C31.9 850.98 27.72 849.33 24.42 846.03C21.34 842.73 19.8 839.21 19.8 835.47C19.8 831.73 20.24 819.41 21.12 798.51C22.22 777.61 22.77 755.39 22.77 731.85C22.77 708.31 22.22 686.86 21.12 667.5C20.24 647.92 19.8 637.8 19.8 637.14C19.8 632.52 21.23 628.45 24.09 624.93C27.17 621.19 31.02 619.32 35.64 619.32C40.26 619.32 44 621.19 46.86 624.93C49.94 628.45 51.48 632.52 51.48 637.14C51.48 637.8 50.93 647.92 49.83 667.5C48.95 686.86 48.51 706.55 48.51 726.57C48.51 746.37 48.62 762.32 48.84 774.42C49.28 786.52 49.83 797.85 50.49 808.41C51.15 818.97 51.48 825.24 51.48 827.22H63.03C83.27 827.22 97.79 826.89 106.59 826.23C115.39 825.35 122.21 822.93 127.05 818.97C131.89 815.01 134.31 810.28 134.31 804.78C134.31 799.06 132 794.22 127.38 790.26C122.98 786.08 118.14 783.99 112.86 783.99C101.86 783.99 96.36 779.7 96.36 771.12C96.36 767.6 98.12 764.52 101.64 761.88C105.16 759.24 109.45 757.92 114.51 757.92C126.17 757.92 135.96 761.77 143.88 769.47C152.02 776.95 156.09 785.86 156.09 796.2C156.09 809.84 150.37 822.38 138.93 833.82C127.49 845.26 114.73 850.98 100.65 850.98L75.9 849.66ZM285.581 804.78C287.121 808.74 290.311 814.13 295.151 820.95C300.211 827.55 302.741 832.94 302.741 837.12C302.741 841.3 301.641 844.71 299.441 847.35C297.241 849.77 294.271 850.98 290.531 850.98C281.511 850.98 273.481 841.63 266.441 822.93L263.801 815.67C252.581 839.21 235.751 850.98 213.311 850.98C202.091 850.98 192.741 847.46 185.261 840.42C178.001 833.16 174.371 824.14 174.371 813.36C174.371 796.64 180.091 782.23 191.531 770.13C202.971 758.03 217.931 751.54 236.411 750.66C232.011 742.96 227.061 737.24 221.561 733.5C216.281 729.54 211.441 727.23 207.041 726.57C202.641 725.91 198.461 725.58 194.501 725.58C190.761 725.36 187.791 724.48 185.591 722.94C183.391 721.4 182.291 718.43 182.291 714.03C182.291 709.41 184.051 705.67 187.571 702.81C191.311 699.95 195.711 698.52 200.771 698.52C215.071 698.52 229.151 705.67 243.011 719.97C256.871 734.27 268.971 756.71 279.311 787.29L285.581 804.78ZM228.161 768.15C220.241 768.15 213.091 770.79 206.711 776.07C200.551 781.35 197.471 788.17 197.471 796.53C197.471 804.89 200.221 811.93 205.721 817.65C211.441 823.15 218.261 825.9 226.181 825.9C234.101 825.9 240.921 823.15 246.641 817.65C252.361 811.93 255.221 805.22 255.221 797.52C255.221 792.02 254.231 786.96 252.251 782.34C250.271 777.5 249.061 774.53 248.621 773.43C242.901 769.91 236.081 768.15 228.161 768.15ZM661.712 646.38L657.752 646.71C660.172 714.91 662.702 763.86 665.342 793.56C666.002 800.82 669.082 807.97 674.582 815.01C680.082 822.05 682.832 828.1 682.832 833.16C682.832 838 681.292 842.18 678.212 845.7C675.352 849.22 671.392 850.98 666.332 850.98C661.492 850.98 657.312 848.01 653.792 842.07C650.492 835.91 648.512 829.31 647.852 822.27C642.572 749.01 635.972 693.46 628.052 655.62C608.032 665.74 588.452 683.23 569.312 708.09C586.692 735.59 595.382 759.02 595.382 778.38C595.382 797.52 588.892 814.13 575.912 828.21C562.932 842.07 550.832 849 539.612 849C528.392 849 519.702 845.37 513.542 838.11C507.602 830.85 504.632 821.94 504.632 811.38C504.632 800.6 508.152 787.07 515.192 770.79C522.452 754.29 531.912 737.13 543.572 719.31C533.452 704.13 521.792 690.71 508.592 679.05C495.392 667.39 482.522 659.36 469.982 654.96C469.982 655.62 469.102 661.78 467.342 673.44C459.642 721.62 454.362 784.98 451.502 863.52C450.402 898.94 449.522 919.51 448.862 925.23C448.422 930.95 446.662 935.35 443.582 938.43C440.502 941.73 436.872 943.38 432.692 943.38C428.732 943.38 424.992 941.73 421.472 938.43C418.172 935.35 416.522 930.18 416.522 922.92C416.522 915.88 419.492 894.76 425.432 859.56C437.752 786.52 444.352 716.89 445.232 650.67C436.212 648.69 431.702 643.08 431.702 633.84C431.702 629.66 433.682 626.25 437.642 623.61C441.602 620.75 446.442 619.32 452.162 619.32C469.102 619.32 487.362 626.58 506.942 641.1C526.742 655.4 544.562 673.44 560.402 695.22C577.122 673 594.392 654.85 612.212 640.77C630.032 626.47 646.532 619.32 661.712 619.32C672.052 619.32 677.222 623.5 677.222 631.86C677.222 635.82 675.462 639.23 671.942 642.09C668.642 644.95 665.232 646.38 661.712 646.38ZM569.312 789.93C569.312 773.21 563.482 754.29 551.822 733.17C534.002 761.77 525.092 783.33 525.092 797.85C525.092 805.77 527.072 812.7 531.032 818.64C535.212 824.58 540.382 827.55 546.542 827.55C552.702 827.55 557.982 823.7 562.382 816C567.002 808.08 569.312 799.39 569.312 789.93ZM753.857 739.11C744.177 748.79 739.337 760.67 739.337 774.75C739.337 788.83 744.177 800.82 753.857 810.72C763.757 820.4 775.637 825.24 789.497 825.24C803.577 825.24 815.347 820.4 824.807 810.72C834.267 800.82 838.997 788.83 838.997 774.75C838.997 760.67 834.267 748.79 824.807 739.11C815.347 729.43 803.577 724.59 789.497 724.59C775.637 724.59 763.757 729.43 753.857 739.11ZM767.057 850.98C752.977 850.98 741.207 845.48 731.747 834.48C722.287 823.48 717.557 809.73 717.557 793.23C717.557 776.51 722.727 760.45 733.067 745.05C743.407 729.43 755.507 717.77 769.367 710.07C783.227 702.37 797.197 698.52 811.277 698.52C825.357 698.52 837.127 704.02 846.587 715.02C856.047 726.02 860.777 739.88 860.777 756.6C860.777 773.1 855.607 789.16 845.267 804.78C834.927 820.18 822.827 831.73 808.967 839.43C795.107 847.13 781.137 850.98 767.057 850.98ZM926.57 850.98C912.71 850.98 901.05 845.48 891.59 834.48C882.13 823.48 877.4 810.83 877.4 796.53C877.4 782.01 880.26 768.48 885.98 755.94C891.7 743.4 898.96 733.06 907.76 724.92C916.56 716.78 926.02 710.4 936.14 705.78C946.48 700.94 957.04 698.52 967.82 698.52C978.82 698.52 988.94 702.59 998.18 710.73C997.96 694.23 997.19 676.19 995.87 656.61C994.55 636.81 993.89 624.38 993.89 619.32C993.89 614.26 995.21 610.08 997.85 606.78C1000.49 603.26 1003.9 601.5 1008.08 601.5C1012.26 601.5 1015.78 603.37 1018.64 607.11C1021.72 610.63 1023.26 615.47 1023.26 621.63C1023.26 627.57 1022.27 641.65 1020.29 663.87C1018.53 685.87 1017.65 706.55 1017.65 725.91C1017.65 745.27 1018.42 762.1 1019.96 776.4C1021.5 790.48 1023.15 800.05 1024.91 805.11C1029.97 818.53 1032.5 827.55 1032.5 832.17C1032.5 844.71 1027.66 850.98 1017.98 850.98C1006.32 850.98 999.5 838.55 997.52 813.69C988.72 825.35 978.16 834.48 965.84 841.08C953.52 847.68 940.43 850.98 926.57 850.98ZM913.7 739.11C904.02 748.79 899.18 760.67 899.18 774.75C899.18 788.83 904.02 800.82 913.7 810.72C923.6 820.4 935.48 825.24 949.34 825.24C963.42 825.24 975.19 820.4 984.65 810.72C994.11 800.82 998.84 788.39 998.84 773.43C998.84 758.47 994.55 746.59 985.97 737.79C977.39 728.99 965.62 724.59 950.66 724.59C935.92 724.59 923.6 729.43 913.7 739.11Z"/>
<path d="M1106.39 850.98C1092.53 850.98 1080.87 845.48 1071.41 834.48C1061.95 823.48 1057.22 810.83 1057.22 796.53C1057.22 782.01 1060.08 768.48 1065.8 755.94C1071.52 743.4 1078.78 733.06 1087.58 724.92C1096.38 716.78 1105.84 710.4 1115.96 705.78C1126.3 700.94 1136.86 698.52 1147.64 698.52C1158.64 698.52 1168.76 702.59 1178 710.73C1177.78 694.23 1177.01 676.19 1175.69 656.61C1174.37 636.81 1173.71 624.38 1173.71 619.32C1173.71 614.26 1175.03 610.08 1177.67 606.78C1180.31 603.26 1183.72 601.5 1187.9 601.5C1192.08 601.5 1195.6 603.37 1198.46 607.11C1201.54 610.63 1203.08 615.47 1203.08 621.63C1203.08 627.57 1202.09 641.65 1200.11 663.87C1198.35 685.87 1197.47 706.55 1197.47 725.91C1197.47 745.27 1198.24 762.1 1199.78 776.4C1201.32 790.48 1202.97 800.05 1204.73 805.11C1209.79 818.53 1212.32 827.55 1212.32 832.17C1212.32 844.71 1207.48 850.98 1197.8 850.98C1186.14 850.98 1179.32 838.55 1177.34 813.69C1168.54 825.35 1157.98 834.48 1145.66 841.08C1133.34 847.68 1120.25 850.98 1106.39 850.98ZM1093.52 739.11C1083.84 748.79 1079 760.67 1079 774.75C1079 788.83 1083.84 800.82 1093.52 810.72C1103.42 820.4 1115.3 825.24 1129.16 825.24C1143.24 825.24 1155.01 820.4 1164.47 810.72C1173.93 800.82 1178.66 788.39 1178.66 773.43C1178.66 758.47 1174.37 746.59 1165.79 737.79C1157.21 728.99 1145.44 724.59 1130.48 724.59C1115.74 724.59 1103.42 729.43 1093.52 739.11ZM1354.86 804.78C1356.4 808.74 1359.59 814.13 1364.43 820.95C1369.49 827.55 1372.02 832.94 1372.02 837.12C1372.02 841.3 1370.92 844.71 1368.72 847.35C1366.52 849.77 1363.55 850.98 1359.81 850.98C1350.79 850.98 1342.76 841.63 1335.72 822.93L1333.08 815.67C1321.86 839.21 1305.03 850.98 1282.59 850.98C1271.37 850.98 1262.02 847.46 1254.54 840.42C1247.28 833.16 1243.65 824.14 1243.65 813.36C1243.65 796.64 1249.37 782.23 1260.81 770.13C1272.25 758.03 1287.21 751.54 1305.69 750.66C1301.29 742.96 1296.34 737.24 1290.84 733.5C1285.56 729.54 1280.72 727.23 1276.32 726.57C1271.92 725.91 1267.74 725.58 1263.78 725.58C1260.04 725.36 1257.07 724.48 1254.87 722.94C1252.67 721.4 1251.57 718.43 1251.57 714.03C1251.57 709.41 1253.33 705.67 1256.85 702.81C1260.59 699.95 1264.99 698.52 1270.05 698.52C1284.35 698.52 1298.43 705.67 1312.29 719.97C1326.15 734.27 1338.25 756.71 1348.59 787.29L1354.86 804.78ZM1297.44 768.15C1289.52 768.15 1282.37 770.79 1275.99 776.07C1269.83 781.35 1266.75 788.17 1266.75 796.53C1266.75 804.89 1269.5 811.93 1275 817.65C1280.72 823.15 1287.54 825.9 1295.46 825.9C1303.38 825.9 1310.2 823.15 1315.92 817.65C1321.64 811.93 1324.5 805.22 1324.5 797.52C1324.5 792.02 1323.51 786.96 1321.53 782.34C1319.55 777.5 1318.34 774.53 1317.9 773.43C1312.18 769.91 1305.36 768.15 1297.44 768.15Z"/>
</mask>
<path d="M75.9 849.66L36.96 850.98C31.9 850.98 27.72 849.33 24.42 846.03C21.34 842.73 19.8 839.21 19.8 835.47C19.8 831.73 20.24 819.41 21.12 798.51C22.22 777.61 22.77 755.39 22.77 731.85C22.77 708.31 22.22 686.86 21.12 667.5C20.24 647.92 19.8 637.8 19.8 637.14C19.8 632.52 21.23 628.45 24.09 624.93C27.17 621.19 31.02 619.32 35.64 619.32C40.26 619.32 44 621.19 46.86 624.93C49.94 628.45 51.48 632.52 51.48 637.14C51.48 637.8 50.93 647.92 49.83 667.5C48.95 686.86 48.51 706.55 48.51 726.57C48.51 746.37 48.62 762.32 48.84 774.42C49.28 786.52 49.83 797.85 50.49 808.41C51.15 818.97 51.48 825.24 51.48 827.22H63.03C83.27 827.22 97.79 826.89 106.59 826.23C115.39 825.35 122.21 822.93 127.05 818.97C131.89 815.01 134.31 810.28 134.31 804.78C134.31 799.06 132 794.22 127.38 790.26C122.98 786.08 118.14 783.99 112.86 783.99C101.86 783.99 96.36 779.7 96.36 771.12C96.36 767.6 98.12 764.52 101.64 761.88C105.16 759.24 109.45 757.92 114.51 757.92C126.17 757.92 135.96 761.77 143.88 769.47C152.02 776.95 156.09 785.86 156.09 796.2C156.09 809.84 150.37 822.38 138.93 833.82C127.49 845.26 114.73 850.98 100.65 850.98L75.9 849.66ZM285.581 804.78C287.121 808.74 290.311 814.13 295.151 820.95C300.211 827.55 302.741 832.94 302.741 837.12C302.741 841.3 301.641 844.71 299.441 847.35C297.241 849.77 294.271 850.98 290.531 850.98C281.511 850.98 273.481 841.63 266.441 822.93L263.801 815.67C252.581 839.21 235.751 850.98 213.311 850.98C202.091 850.98 192.741 847.46 185.261 840.42C178.001 833.16 174.371 824.14 174.371 813.36C174.371 796.64 180.091 782.23 191.531 770.13C202.971 758.03 217.931 751.54 236.411 750.66C232.011 742.96 227.061 737.24 221.561 733.5C216.281 729.54 211.441 727.23 207.041 726.57C202.641 725.91 198.461 725.58 194.501 725.58C190.761 725.36 187.791 724.48 185.591 722.94C183.391 721.4 182.291 718.43 182.291 714.03C182.291 709.41 184.051 705.67 187.571 702.81C191.311 699.95 195.711 698.52 200.771 698.52C215.071 698.52 229.151 705.67 243.011 719.97C256.871 734.27 268.971 756.71 279.311 787.29L285.581 804.78ZM228.161 768.15C220.241 768.15 213.091 770.79 206.711 776.07C200.551 781.35 197.471 788.17 197.471 796.53C197.471 804.89 200.221 811.93 205.721 817.65C211.441 823.15 218.261 825.9 226.181 825.9C234.101 825.9 240.921 823.15 246.641 817.65C252.361 811.93 255.221 805.22 255.221 797.52C255.221 792.02 254.231 786.96 252.251 782.34C250.271 777.5 249.061 774.53 248.621 773.43C242.901 769.91 236.081 768.15 228.161 768.15ZM661.712 646.38L657.752 646.71C660.172 714.91 662.702 763.86 665.342 793.56C666.002 800.82 669.082 807.97 674.582 815.01C680.082 822.05 682.832 828.1 682.832 833.16C682.832 838 681.292 842.18 678.212 845.7C675.352 849.22 671.392 850.98 666.332 850.98C661.492 850.98 657.312 848.01 653.792 842.07C650.492 835.91 648.512 829.31 647.852 822.27C642.572 749.01 635.972 693.46 628.052 655.62C608.032 665.74 588.452 683.23 569.312 708.09C586.692 735.59 595.382 759.02 595.382 778.38C595.382 797.52 588.892 814.13 575.912 828.21C562.932 842.07 550.832 849 539.612 849C528.392 849 519.702 845.37 513.542 838.11C507.602 830.85 504.632 821.94 504.632 811.38C504.632 800.6 508.152 787.07 515.192 770.79C522.452 754.29 531.912 737.13 543.572 719.31C533.452 704.13 521.792 690.71 508.592 679.05C495.392 667.39 482.522 659.36 469.982 654.96C469.982 655.62 469.102 661.78 467.342 673.44C459.642 721.62 454.362 784.98 451.502 863.52C450.402 898.94 449.522 919.51 448.862 925.23C448.422 930.95 446.662 935.35 443.582 938.43C440.502 941.73 436.872 943.38 432.692 943.38C428.732 943.38 424.992 941.73 421.472 938.43C418.172 935.35 416.522 930.18 416.522 922.92C416.522 915.88 419.492 894.76 425.432 859.56C437.752 786.52 444.352 716.89 445.232 650.67C436.212 648.69 431.702 643.08 431.702 633.84C431.702 629.66 433.682 626.25 437.642 623.61C441.602 620.75 446.442 619.32 452.162 619.32C469.102 619.32 487.362 626.58 506.942 641.1C526.742 655.4 544.562 673.44 560.402 695.22C577.122 673 594.392 654.85 612.212 640.77C630.032 626.47 646.532 619.32 661.712 619.32C672.052 619.32 677.222 623.5 677.222 631.86C677.222 635.82 675.462 639.23 671.942 642.09C668.642 644.95 665.232 646.38 661.712 646.38ZM569.312 789.93C569.312 773.21 563.482 754.29 551.822 733.17C534.002 761.77 525.092 783.33 525.092 797.85C525.092 805.77 527.072 812.7 531.032 818.64C535.212 824.58 540.382 827.55 546.542 827.55C552.702 827.55 557.982 823.7 562.382 816C567.002 808.08 569.312 799.39 569.312 789.93ZM753.857 739.11C744.177 748.79 739.337 760.67 739.337 774.75C739.337 788.83 744.177 800.82 753.857 810.72C763.757 820.4 775.637 825.24 789.497 825.24C803.577 825.24 815.347 820.4 824.807 810.72C834.267 800.82 838.997 788.83 838.997 774.75C838.997 760.67 834.267 748.79 824.807 739.11C815.347 729.43 803.577 724.59 789.497 724.59C775.637 724.59 763.757 729.43 753.857 739.11ZM767.057 850.98C752.977 850.98 741.207 845.48 731.747 834.48C722.287 823.48 717.557 809.73 717.557 793.23C717.557 776.51 722.727 760.45 733.067 745.05C743.407 729.43 755.507 717.77 769.367 710.07C783.227 702.37 797.197 698.52 811.277 698.52C825.357 698.52 837.127 704.02 846.587 715.02C856.047 726.02 860.777 739.88 860.777 756.6C860.777 773.1 855.607 789.16 845.267 804.78C834.927 820.18 822.827 831.73 808.967 839.43C795.107 847.13 781.137 850.98 767.057 850.98ZM926.57 850.98C912.71 850.98 901.05 845.48 891.59 834.48C882.13 823.48 877.4 810.83 877.4 796.53C877.4 782.01 880.26 768.48 885.98 755.94C891.7 743.4 898.96 733.06 907.76 724.92C916.56 716.78 926.02 710.4 936.14 705.78C946.48 700.94 957.04 698.52 967.82 698.52C978.82 698.52 988.94 702.59 998.18 710.73C997.96 694.23 997.19 676.19 995.87 656.61C994.55 636.81 993.89 624.38 993.89 619.32C993.89 614.26 995.21 610.08 997.85 606.78C1000.49 603.26 1003.9 601.5 1008.08 601.5C1012.26 601.5 1015.78 603.37 1018.64 607.11C1021.72 610.63 1023.26 615.47 1023.26 621.63C1023.26 627.57 1022.27 641.65 1020.29 663.87C1018.53 685.87 1017.65 706.55 1017.65 725.91C1017.65 745.27 1018.42 762.1 1019.96 776.4C1021.5 790.48 1023.15 800.05 1024.91 805.11C1029.97 818.53 1032.5 827.55 1032.5 832.17C1032.5 844.71 1027.66 850.98 1017.98 850.98C1006.32 850.98 999.5 838.55 997.52 813.69C988.72 825.35 978.16 834.48 965.84 841.08C953.52 847.68 940.43 850.98 926.57 850.98ZM913.7 739.11C904.02 748.79 899.18 760.67 899.18 774.75C899.18 788.83 904.02 800.82 913.7 810.72C923.6 820.4 935.48 825.24 949.34 825.24C963.42 825.24 975.19 820.4 984.65 810.72C994.11 800.82 998.84 788.39 998.84 773.43C998.84 758.47 994.55 746.59 985.97 737.79C977.39 728.99 965.62 724.59 950.66 724.59C935.92 724.59 923.6 729.43 913.7 739.11Z" fill="black"/>
<path d="M1106.39 850.98C1092.53 850.98 1080.87 845.48 1071.41 834.48C1061.95 823.48 1057.22 810.83 1057.22 796.53C1057.22 782.01 1060.08 768.48 1065.8 755.94C1071.52 743.4 1078.78 733.06 1087.58 724.92C1096.38 716.78 1105.84 710.4 1115.96 705.78C1126.3 700.94 1136.86 698.52 1147.64 698.52C1158.64 698.52 1168.76 702.59 1178 710.73C1177.78 694.23 1177.01 676.19 1175.69 656.61C1174.37 636.81 1173.71 624.38 1173.71 619.32C1173.71 614.26 1175.03 610.08 1177.67 606.78C1180.31 603.26 1183.72 601.5 1187.9 601.5C1192.08 601.5 1195.6 603.37 1198.46 607.11C1201.54 610.63 1203.08 615.47 1203.08 621.63C1203.08 627.57 1202.09 641.65 1200.11 663.87C1198.35 685.87 1197.47 706.55 1197.47 725.91C1197.47 745.27 1198.24 762.1 1199.78 776.4C1201.32 790.48 1202.97 800.05 1204.73 805.11C1209.79 818.53 1212.32 827.55 1212.32 832.17C1212.32 844.71 1207.48 850.98 1197.8 850.98C1186.14 850.98 1179.32 838.55 1177.34 813.69C1168.54 825.35 1157.98 834.48 1145.66 841.08C1133.34 847.68 1120.25 850.98 1106.39 850.98ZM1093.52 739.11C1083.84 748.79 1079 760.67 1079 774.75C1079 788.83 1083.84 800.82 1093.52 810.72C1103.42 820.4 1115.3 825.24 1129.16 825.24C1143.24 825.24 1155.01 820.4 1164.47 810.72C1173.93 800.82 1178.66 788.39 1178.66 773.43C1178.66 758.47 1174.37 746.59 1165.79 737.79C1157.21 728.99 1145.44 724.59 1130.48 724.59C1115.74 724.59 1103.42 729.43 1093.52 739.11ZM1354.86 804.78C1356.4 808.74 1359.59 814.13 1364.43 820.95C1369.49 827.55 1372.02 832.94 1372.02 837.12C1372.02 841.3 1370.92 844.71 1368.72 847.35C1366.52 849.77 1363.55 850.98 1359.81 850.98C1350.79 850.98 1342.76 841.63 1335.72 822.93L1333.08 815.67C1321.86 839.21 1305.03 850.98 1282.59 850.98C1271.37 850.98 1262.02 847.46 1254.54 840.42C1247.28 833.16 1243.65 824.14 1243.65 813.36C1243.65 796.64 1249.37 782.23 1260.81 770.13C1272.25 758.03 1287.21 751.54 1305.69 750.66C1301.29 742.96 1296.34 737.24 1290.84 733.5C1285.56 729.54 1280.72 727.23 1276.32 726.57C1271.92 725.91 1267.74 725.58 1263.78 725.58C1260.04 725.36 1257.07 724.48 1254.87 722.94C1252.67 721.4 1251.57 718.43 1251.57 714.03C1251.57 709.41 1253.33 705.67 1256.85 702.81C1260.59 699.95 1264.99 698.52 1270.05 698.52C1284.35 698.52 1298.43 705.67 1312.29 719.97C1326.15 734.27 1338.25 756.71 1348.59 787.29L1354.86 804.78ZM1297.44 768.15C1289.52 768.15 1282.37 770.79 1275.99 776.07C1269.83 781.35 1266.75 788.17 1266.75 796.53C1266.75 804.89 1269.5 811.93 1275 817.65C1280.72 823.15 1287.54 825.9 1295.46 825.9C1303.38 825.9 1310.2 823.15 1315.92 817.65C1321.64 811.93 1324.5 805.22 1324.5 797.52C1324.5 792.02 1323.51 786.96 1321.53 782.34C1319.55 777.5 1318.34 774.53 1317.9 773.43C1312.18 769.91 1305.36 768.15 1297.44 768.15Z" fill="#F25822"/>
<path d="M75.9 849.66L76.0065 847.663L75.9194 847.658L75.8322 847.661L75.9 849.66ZM36.96 850.98V852.98H36.9939L37.0278 852.979L36.96 850.98ZM24.42 846.03L22.9579 847.395L22.9814 847.42L23.0058 847.444L24.42 846.03ZM21.12 798.51L19.1228 798.405L19.1222 798.415L19.1218 798.426L21.12 798.51ZM21.12 667.5L19.122 667.59L19.1225 667.602L19.1232 667.613L21.12 667.5ZM24.09 624.93L22.5461 623.659L22.5378 623.669L24.09 624.93ZM46.86 624.93L45.2713 626.145L45.3114 626.197L45.3548 626.247L46.86 624.93ZM49.83 667.5L47.8332 667.388L47.8326 667.398L47.8321 667.409L49.83 667.5ZM48.84 774.42L46.8403 774.456L46.8407 774.475L46.8413 774.493L48.84 774.42ZM50.49 808.41L52.4861 808.285L52.4861 808.285L50.49 808.41ZM51.48 827.22H49.48V829.22H51.48V827.22ZM106.59 826.23L106.74 828.224L106.764 828.223L106.789 828.22L106.59 826.23ZM127.05 818.97L128.316 820.518L128.316 820.518L127.05 818.97ZM127.38 790.26L126.003 791.71L126.04 791.745L126.078 791.779L127.38 790.26ZM101.64 761.88L102.84 763.48L102.84 763.48L101.64 761.88ZM143.88 769.47L142.486 770.904L142.506 770.924L142.527 770.943L143.88 769.47ZM138.93 833.82L140.344 835.234L140.344 835.234L138.93 833.82ZM100.65 850.98L100.543 852.977L100.597 852.98H100.65V850.98ZM75.8322 847.661L36.8922 848.981L37.0278 852.979L75.9678 851.659L75.8322 847.661ZM36.96 848.98C32.3811 848.98 28.7257 847.507 25.8342 844.616L23.0058 847.444C26.7143 851.153 31.4189 852.98 36.96 852.98V848.98ZM25.8821 844.665C23.0721 841.655 21.8 838.603 21.8 835.47H17.8C17.8 839.817 19.6079 843.805 22.9579 847.395L25.8821 844.665ZM21.8 835.47C21.8 831.784 22.2372 819.519 23.1182 798.594L19.1218 798.426C18.2428 819.301 17.8 831.676 17.8 835.47H21.8ZM23.1172 798.615C24.2193 777.676 24.77 755.421 24.77 731.85H20.77C20.77 755.359 20.2207 777.544 19.1228 798.405L23.1172 798.615ZM24.77 731.85C24.77 708.28 24.2193 686.791 23.1168 667.387L19.1232 667.613C20.2207 686.929 20.77 708.34 20.77 731.85H24.77ZM23.118 667.41C22.678 657.62 22.348 650.197 22.1281 645.138C22.0181 642.609 21.9357 640.672 21.8808 639.327C21.8534 638.654 21.8329 638.132 21.8193 637.758C21.8125 637.571 21.8075 637.424 21.8043 637.315C21.8026 637.26 21.8015 637.218 21.8008 637.186C21.8 637.151 21.8 637.138 21.8 637.14H17.8C17.8 637.86 18.2444 648.062 19.122 667.59L23.118 667.41ZM21.8 637.14C21.8 632.97 23.0777 629.348 25.6422 626.191L22.5378 623.669C19.3823 627.552 17.8 632.07 17.8 637.14H21.8ZM25.6339 626.201C28.3552 622.897 31.6503 621.32 35.64 621.32V617.32C30.3897 617.32 25.9848 619.483 22.5461 623.659L25.6339 626.201ZM35.64 621.32C39.6232 621.32 42.7812 622.889 45.2713 626.145L48.4487 623.715C45.2188 619.491 40.8968 617.32 35.64 617.32V621.32ZM45.3548 626.247C48.1202 629.407 49.48 633.011 49.48 637.14H53.48C53.48 632.029 51.7598 627.493 48.3652 623.613L45.3548 626.247ZM49.48 637.14C49.48 637.138 49.4794 637.181 49.4749 637.3C49.4709 637.407 49.4648 637.554 49.4563 637.74C49.4393 638.113 49.4138 638.634 49.3795 639.307C49.3109 640.651 49.2079 642.587 49.0704 645.116C48.7956 650.175 48.3831 657.598 47.8332 667.388L51.8269 667.612C52.9232 648.097 53.48 637.875 53.48 637.14H49.48ZM47.8321 667.409C46.9506 686.8 46.51 706.521 46.51 726.57H50.51C50.51 706.579 50.9494 686.92 51.8279 667.591L47.8321 667.409ZM46.51 726.57C46.51 746.376 46.62 762.339 46.8403 774.456L50.8397 774.384C50.62 762.301 50.51 746.364 50.51 726.57H46.51ZM46.8413 774.493C47.2819 786.608 47.8327 797.955 48.4939 808.535L52.4861 808.285C51.8273 797.745 51.2781 786.432 50.8387 774.347L46.8413 774.493ZM48.4939 808.535C49.1561 819.13 49.48 825.319 49.48 827.22H53.48C53.48 825.161 53.1439 818.81 52.4861 808.285L48.4939 808.535ZM51.48 829.22H63.03V825.22H51.48V829.22ZM63.03 829.22C83.273 829.22 97.8584 828.89 106.74 828.224L106.44 824.236C97.7216 824.89 83.267 825.22 63.03 825.22V829.22ZM106.789 828.22C115.825 827.316 123.07 824.81 128.316 820.518L125.784 817.422C121.35 821.05 114.955 823.384 106.391 824.24L106.789 828.22ZM128.316 820.518C133.549 816.237 136.31 810.967 136.31 804.78H132.31C132.31 809.593 130.231 813.783 125.784 817.422L128.316 820.518ZM136.31 804.78C136.31 798.435 133.713 793.054 128.682 788.741L126.078 791.779C130.287 795.386 132.31 799.685 132.31 804.78H136.31ZM128.758 788.81C124.046 784.334 118.73 781.99 112.86 781.99V785.99C117.55 785.99 121.914 787.826 126.003 791.71L128.758 788.81ZM112.86 781.99C107.565 781.99 103.962 780.948 101.715 779.195C99.5626 777.517 98.36 774.951 98.36 771.12H94.36C94.36 775.869 95.9074 779.738 99.2549 782.35C102.508 784.887 107.155 785.99 112.86 785.99V781.99ZM98.36 771.12C98.36 768.386 99.684 765.847 102.84 763.48L100.44 760.28C96.556 763.193 94.36 766.814 94.36 771.12H98.36ZM102.84 763.48C105.963 761.137 109.815 759.92 114.51 759.92V755.92C109.085 755.92 104.357 757.343 100.44 760.28L102.84 763.48ZM114.51 759.92C125.681 759.92 134.962 763.589 142.486 770.904L145.274 768.036C136.958 759.951 126.659 755.92 114.51 755.92V759.92ZM142.527 770.943C150.287 778.073 154.09 786.462 154.09 796.2H158.09C158.09 785.258 153.753 775.827 145.233 767.997L142.527 770.943ZM154.09 796.2C154.09 809.212 148.656 821.266 137.516 832.406L140.344 835.234C152.084 823.494 158.09 810.468 158.09 796.2H154.09ZM137.516 832.406C126.39 843.531 114.12 848.98 100.65 848.98V852.98C115.34 852.98 128.59 846.989 140.344 835.234L137.516 832.406ZM100.757 848.983L76.0065 847.663L75.7935 851.657L100.543 852.977L100.757 848.983ZM285.581 804.78L283.699 805.455L283.708 805.48L283.717 805.505L285.581 804.78ZM295.151 820.95L293.52 822.107L293.542 822.138L293.564 822.167L295.151 820.95ZM299.441 847.35L300.921 848.695L300.95 848.663L300.978 848.63L299.441 847.35ZM266.441 822.93L264.562 823.613L264.566 823.624L264.57 823.635L266.441 822.93ZM263.801 815.67L265.681 814.987L264.05 810.501L261.996 814.809L263.801 815.67ZM185.261 840.42L183.847 841.834L183.869 841.856L183.891 841.876L185.261 840.42ZM236.411 750.66L236.507 752.658L239.768 752.502L238.148 749.668L236.411 750.66ZM221.561 733.5L220.361 735.1L220.399 735.128L220.437 735.154L221.561 733.5ZM207.041 726.57L207.338 724.592L207.338 724.592L207.041 726.57ZM194.501 725.58L194.384 727.577L194.443 727.58H194.501V725.58ZM187.571 702.81L186.357 701.221L186.333 701.239L186.31 701.258L187.571 702.81ZM243.011 719.97L244.448 718.578L244.448 718.578L243.011 719.97ZM279.311 787.29L277.417 787.931L277.423 787.948L277.429 787.965L279.311 787.29ZM206.711 776.07L205.436 774.529L205.423 774.54L205.41 774.551L206.711 776.07ZM205.721 817.65L204.28 819.036L204.307 819.064L204.335 819.092L205.721 817.65ZM246.641 817.65L248.028 819.092L248.042 819.078L248.056 819.064L246.641 817.65ZM252.251 782.34L250.4 783.097L250.407 783.113L250.413 783.128L252.251 782.34ZM248.621 773.43L250.478 772.687L250.233 772.073L249.67 771.727L248.621 773.43ZM283.717 805.505C285.35 809.703 288.658 815.256 293.52 822.107L296.783 819.793C291.965 813.004 288.893 807.777 287.446 804.055L283.717 805.505ZM293.564 822.167C298.579 828.708 300.741 833.642 300.741 837.12H304.741C304.741 832.238 301.844 826.392 296.739 819.733L293.564 822.167ZM300.741 837.12C300.741 840.937 299.745 843.862 297.905 846.07L300.978 848.63C303.538 845.558 304.741 841.663 304.741 837.12H300.741ZM297.962 846.005C296.197 847.946 293.797 848.98 290.531 848.98V852.98C294.746 852.98 298.286 851.594 300.921 848.695L297.962 846.005ZM290.531 848.98C286.797 848.98 283.042 847.067 279.261 842.664C275.463 838.242 271.796 831.475 268.313 822.225L264.57 823.635C268.127 833.085 271.994 840.343 276.227 845.271C280.476 850.218 285.246 852.98 290.531 852.98V848.98ZM268.321 822.247L265.681 814.987L261.922 816.353L264.562 823.613L268.321 822.247ZM261.996 814.809C256.495 826.35 249.683 834.873 241.618 840.514C233.57 846.142 224.161 848.98 213.311 848.98V852.98C224.902 852.98 235.128 849.933 243.91 843.791C252.675 837.662 259.888 828.53 265.607 816.531L261.996 814.809ZM213.311 848.98C202.55 848.98 193.705 845.621 186.632 838.964L183.891 841.876C191.777 849.299 201.633 852.98 213.311 852.98V848.98ZM186.676 839.006C179.811 832.141 176.371 823.639 176.371 813.36H172.371C172.371 824.641 176.192 834.179 183.847 841.834L186.676 839.006ZM176.371 813.36C176.371 797.149 181.897 783.231 192.985 771.504L190.078 768.756C178.286 781.229 172.371 796.131 172.371 813.36H176.371ZM192.985 771.504C204.029 759.823 218.48 753.516 236.507 752.658L236.316 748.662C217.382 749.564 201.914 756.237 190.078 768.756L192.985 771.504ZM238.148 749.668C233.645 741.788 228.507 735.804 222.686 731.846L220.437 735.154C225.616 738.676 230.378 744.132 234.675 751.652L238.148 749.668ZM222.761 731.9C217.335 727.83 212.186 725.319 207.338 724.592L206.745 728.548C210.697 729.141 215.228 731.25 220.361 735.1L222.761 731.9ZM207.338 724.592C202.852 723.919 198.572 723.58 194.501 723.58V727.58C198.351 727.58 202.431 727.901 206.745 728.548L207.338 724.592ZM194.619 723.583C191.109 723.377 188.538 722.561 186.738 721.302L184.445 724.578C187.045 726.399 190.414 727.343 194.384 727.577L194.619 723.583ZM186.738 721.302C185.344 720.325 184.291 718.198 184.291 714.03H180.291C180.291 718.662 181.439 722.475 184.445 724.578L186.738 721.302ZM184.291 714.03C184.291 709.999 185.79 706.834 188.833 704.362L186.31 701.258C182.313 704.506 180.291 708.821 180.291 714.03H184.291ZM188.786 704.399C192.151 701.826 196.116 700.52 200.771 700.52V696.52C195.307 696.52 190.472 698.074 186.357 701.221L188.786 704.399ZM200.771 700.52C214.346 700.52 227.941 707.295 241.575 721.362L244.448 718.578C230.362 704.045 215.797 696.52 200.771 696.52V700.52ZM241.575 721.362C255.139 735.356 267.12 757.477 277.417 787.931L281.206 786.649C270.823 755.943 258.604 733.184 244.448 718.578L241.575 721.362ZM277.429 787.965L283.699 805.455L287.464 804.105L281.194 786.615L277.429 787.965ZM228.161 766.15C219.753 766.15 212.157 768.967 205.436 774.529L207.987 777.611C214.026 772.613 220.73 770.15 228.161 770.15V766.15ZM205.41 774.551C198.791 780.225 195.471 787.607 195.471 796.53H199.471C199.471 788.733 202.312 782.475 208.013 777.589L205.41 774.551ZM195.471 796.53C195.471 805.376 198.401 812.922 204.28 819.036L207.163 816.264C202.042 810.938 199.471 804.404 199.471 796.53H195.471ZM204.335 819.092C210.427 824.949 217.744 827.9 226.181 827.9V823.9C218.779 823.9 212.456 821.351 207.108 816.208L204.335 819.092ZM226.181 827.9C234.619 827.9 241.936 824.949 248.028 819.092L245.255 816.208C239.907 821.351 233.584 823.9 226.181 823.9V827.9ZM248.056 819.064C254.13 812.99 257.221 805.78 257.221 797.52H253.221C253.221 804.66 250.593 810.87 245.227 816.236L248.056 819.064ZM257.221 797.52C257.221 791.775 256.186 786.444 254.09 781.552L250.413 783.128C252.277 787.476 253.221 792.265 253.221 797.52H257.221ZM254.103 781.583C252.121 776.74 250.915 773.778 250.478 772.687L246.765 774.173C247.208 775.282 248.422 778.26 250.4 783.097L254.103 781.583ZM249.67 771.727C243.582 767.98 236.384 766.15 228.161 766.15V770.15C235.779 770.15 242.221 771.84 247.573 775.133L249.67 771.727ZM661.712 646.38V644.38H661.629L661.546 644.387L661.712 646.38ZM657.752 646.71L657.586 644.717L655.686 644.875L655.753 646.781L657.752 646.71ZM665.342 793.56L663.35 793.737L663.35 793.741L665.342 793.56ZM674.582 815.01L676.158 813.779L676.158 813.779L674.582 815.01ZM678.212 845.7L676.707 844.383L676.683 844.41L676.66 844.439L678.212 845.7ZM653.792 842.07L652.029 843.014L652.049 843.052L652.071 843.09L653.792 842.07ZM647.852 822.27L645.857 822.414L645.859 822.435L645.861 822.457L647.852 822.27ZM628.052 655.62L630.009 655.21L629.476 652.659L627.15 653.835L628.052 655.62ZM569.312 708.09L567.727 706.87L566.875 707.977L567.621 709.158L569.312 708.09ZM575.912 828.21L577.372 829.577L577.377 829.571L577.382 829.566L575.912 828.21ZM513.542 838.11L511.994 839.376L512.005 839.39L512.017 839.404L513.542 838.11ZM515.192 770.79L513.361 769.984L513.356 769.996L515.192 770.79ZM543.572 719.31L545.245 720.405L545.969 719.3L545.236 718.201L543.572 719.31ZM508.592 679.05L509.916 677.551L509.916 677.551L508.592 679.05ZM469.982 654.96L470.644 653.073L467.982 652.139V654.96H469.982ZM467.342 673.44L469.317 673.756L469.318 673.747L469.319 673.739L467.342 673.44ZM451.502 863.52L449.503 863.447L449.503 863.458L451.502 863.52ZM448.862 925.23L446.875 925.001L446.871 925.039L446.868 925.077L448.862 925.23ZM443.582 938.43L442.168 937.016L442.143 937.04L442.12 937.065L443.582 938.43ZM421.472 938.43L422.84 936.971L422.837 936.968L421.472 938.43ZM425.432 859.56L427.404 859.893L427.404 859.893L425.432 859.56ZM445.232 650.67L447.232 650.697L447.253 649.066L445.661 648.717L445.232 650.67ZM437.642 623.61L438.751 625.274L438.782 625.253L438.813 625.231L437.642 623.61ZM506.942 641.1L505.751 642.706L505.761 642.714L505.771 642.721L506.942 641.1ZM560.402 695.22L558.784 696.396L560.375 698.583L562 696.423L560.402 695.22ZM612.212 640.77L613.452 642.339L613.458 642.335L613.464 642.33L612.212 640.77ZM671.942 642.09L670.681 640.538L670.656 640.558L670.632 640.579L671.942 642.09ZM551.822 733.17L553.573 732.203L551.926 729.221L550.124 732.112L551.822 733.17ZM531.032 818.64L529.368 819.749L529.382 819.77L529.396 819.791L531.032 818.64ZM562.382 816L560.654 814.992L560.65 815L560.645 815.008L562.382 816ZM661.546 644.387L657.586 644.717L657.918 648.703L661.878 648.373L661.546 644.387ZM655.753 646.781C658.173 714.983 660.705 763.979 663.35 793.737L667.334 793.383C664.699 763.741 662.171 714.837 659.751 646.639L655.753 646.781ZM663.35 793.741C664.052 801.462 667.323 808.967 673.006 816.241L676.158 813.779C670.841 806.973 667.952 800.178 667.334 793.379L663.35 793.741ZM673.006 816.241C678.419 823.17 680.832 828.777 680.832 833.16H684.832C684.832 827.423 681.745 820.93 676.158 813.779L673.006 816.241ZM680.832 833.16C680.832 837.534 679.456 841.241 676.707 844.383L679.717 847.017C683.128 843.119 684.832 838.466 684.832 833.16H680.832ZM676.66 844.439C674.227 847.433 670.869 848.98 666.332 848.98V852.98C671.915 852.98 676.477 851.007 679.764 846.961L676.66 844.439ZM666.332 848.98C662.477 848.98 658.842 846.669 655.512 841.05L652.071 843.09C655.782 849.351 660.506 852.98 666.332 852.98V848.98ZM655.555 841.126C652.382 835.203 650.479 828.861 649.843 822.083L645.861 822.457C646.545 829.759 648.602 836.617 652.029 843.014L655.555 841.126ZM649.847 822.126C644.565 748.841 637.957 693.184 630.009 655.21L626.094 656.03C633.986 693.736 640.579 749.179 645.857 822.414L649.847 822.126ZM627.15 653.835C606.778 664.133 586.981 681.861 567.727 706.87L570.897 709.31C589.922 684.599 609.285 667.347 628.954 657.405L627.15 653.835ZM567.621 709.158C584.922 736.533 593.382 759.576 593.382 778.38H597.382C597.382 758.464 588.462 734.647 571.003 707.021L567.621 709.158ZM593.382 778.38C593.382 797.017 587.081 813.144 574.441 826.854L577.382 829.566C590.703 815.116 597.382 798.023 597.382 778.38H593.382ZM574.452 826.843C561.602 840.564 549.998 847 539.612 847V851C551.666 851 564.262 843.576 577.372 829.577L574.452 826.843ZM539.612 847C528.863 847 520.778 843.547 515.067 836.816L512.017 839.404C518.626 847.193 527.92 851 539.612 851V847ZM515.09 836.844C509.479 829.986 506.632 821.54 506.632 811.38H502.632C502.632 822.34 505.725 831.714 511.994 839.376L515.09 836.844ZM506.632 811.38C506.632 800.994 510.035 787.755 517.028 771.584L513.356 769.996C506.269 786.385 502.632 800.206 502.632 811.38H506.632ZM517.023 771.595C524.231 755.212 533.635 738.149 545.245 720.405L541.898 718.215C530.189 736.111 520.673 753.368 513.361 769.985L517.023 771.595ZM545.236 718.201C535.023 702.882 523.25 689.33 509.916 677.551L507.268 680.549C520.334 692.09 531.88 705.378 541.908 720.419L545.236 718.201ZM509.916 677.551C496.582 665.773 483.493 657.581 470.644 653.073L469.32 656.847C481.551 661.139 494.202 669.007 507.268 680.549L509.916 677.551ZM467.982 654.96C467.982 654.916 467.982 654.975 467.952 655.25C467.927 655.485 467.888 655.81 467.833 656.23C467.725 657.069 467.562 658.255 467.342 659.792C466.903 662.864 466.244 667.313 465.364 673.141L469.319 673.739C470.2 667.907 470.861 663.446 471.302 660.358C471.522 658.815 471.689 657.608 471.8 656.742C471.901 655.959 471.982 655.287 471.982 654.96H467.982ZM465.367 673.124C457.649 721.418 452.365 784.868 449.503 863.447L453.501 863.593C456.359 785.092 461.635 721.822 469.317 673.756L465.367 673.124ZM449.503 863.458C448.401 898.932 447.523 919.388 446.875 925.001L450.849 925.459C451.521 919.632 452.403 898.948 453.501 863.582L449.503 863.458ZM446.868 925.077C446.453 930.474 444.815 934.368 442.168 937.016L444.996 939.844C448.508 936.332 450.391 931.426 450.856 925.383L446.868 925.077ZM442.12 937.065C439.384 939.996 436.27 941.38 432.692 941.38V945.38C437.474 945.38 441.619 943.464 445.044 939.795L442.12 937.065ZM432.692 941.38C429.346 941.38 426.074 940.003 422.84 936.971L420.104 939.889C423.909 943.457 428.118 945.38 432.692 945.38V941.38ZM422.837 936.968C420.131 934.443 418.522 929.953 418.522 922.92H414.522C414.522 930.407 416.213 936.257 420.107 939.892L422.837 936.968ZM418.522 922.92C418.522 919.564 419.241 912.663 420.73 902.079C422.211 891.545 424.435 877.485 427.404 859.893L423.46 859.227C420.488 876.835 418.258 890.935 416.769 901.521C415.287 912.057 414.522 919.236 414.522 922.92H418.522ZM427.404 859.893C439.739 786.763 446.35 717.03 447.232 650.697L443.232 650.643C442.354 716.75 435.765 786.277 423.46 859.227L427.404 859.893ZM445.661 648.717C441.468 647.796 438.54 646.084 436.643 643.724C434.746 641.365 433.702 638.135 433.702 633.84H429.702C429.702 638.785 430.912 642.98 433.526 646.231C436.139 649.481 439.976 651.564 444.803 652.623L445.661 648.717ZM433.702 633.84C433.702 630.43 435.258 627.603 438.751 625.274L436.532 621.946C432.106 624.897 429.702 628.89 429.702 633.84H433.702ZM438.813 625.231C442.376 622.658 446.788 621.32 452.162 621.32V617.32C446.096 617.32 440.827 618.842 436.471 621.989L438.813 625.231ZM452.162 621.32C468.521 621.32 486.369 628.334 505.751 642.706L508.133 639.494C488.354 624.826 469.683 617.32 452.162 617.32V621.32ZM505.771 642.721C525.383 656.886 543.056 674.77 558.784 696.396L562.019 694.044C546.068 672.11 528.101 653.914 508.113 639.479L505.771 642.721ZM562 696.423C578.639 674.31 595.793 656.292 613.452 642.339L610.972 639.201C592.991 653.408 575.605 671.69 558.804 694.017L562 696.423ZM613.464 642.33C631.1 628.177 647.167 621.32 661.712 621.32V617.32C645.897 617.32 628.964 624.763 610.96 639.21L613.464 642.33ZM661.712 621.32C666.664 621.32 670.008 622.329 672.087 624.01C674.084 625.625 675.222 628.114 675.222 631.86H679.222C679.222 627.246 677.774 623.465 674.602 620.9C671.511 618.4 667.099 617.32 661.712 617.32V621.32ZM675.222 631.86C675.222 635.126 673.81 637.995 670.681 640.538L673.203 643.642C677.114 640.464 679.222 636.514 679.222 631.86H675.222ZM670.632 640.579C667.605 643.202 664.643 644.38 661.712 644.38V648.38C665.821 648.38 669.679 646.698 673.252 643.601L670.632 640.579ZM571.312 789.93C571.312 772.755 565.328 753.497 553.573 732.203L550.071 734.137C561.635 755.083 567.312 773.665 567.312 789.93H571.312ZM550.124 732.112C541.179 746.469 534.437 759.11 529.926 770.026C525.424 780.919 523.092 790.217 523.092 797.85H527.092C527.092 790.963 529.214 782.221 533.623 771.554C538.022 760.91 544.644 748.471 553.519 734.228L550.124 732.112ZM523.092 797.85C523.092 806.12 525.165 813.445 529.368 819.749L532.696 817.531C528.979 811.955 527.092 805.42 527.092 797.85H523.092ZM529.396 819.791C533.874 826.154 539.608 829.55 546.542 829.55V825.55C541.156 825.55 536.55 823.006 532.667 817.489L529.396 819.791ZM546.542 829.55C553.711 829.55 559.536 825.012 564.118 816.992L560.645 815.008C556.428 822.388 551.692 825.55 546.542 825.55V829.55ZM564.109 817.008C568.914 808.772 571.312 799.732 571.312 789.93H567.312C567.312 799.048 565.09 807.388 560.654 814.992L564.109 817.008ZM753.857 739.11L752.458 737.68L752.45 737.688L752.442 737.696L753.857 739.11ZM753.857 810.72L752.427 812.118L752.442 812.134L752.458 812.15L753.857 810.72ZM824.807 810.72L826.237 812.118L826.245 812.11L826.253 812.102L824.807 810.72ZM824.807 739.11L826.237 737.712L826.237 737.712L824.807 739.11ZM731.747 834.48L733.263 833.176L731.747 834.48ZM733.067 745.05L734.727 746.165L734.734 746.154L733.067 745.05ZM769.367 710.07L768.395 708.322L768.395 708.322L769.367 710.07ZM846.587 715.02L845.07 716.324L845.07 716.324L846.587 715.02ZM845.267 804.78L846.927 805.895L846.934 805.884L845.267 804.78ZM808.967 839.43L809.938 841.178L809.938 841.178L808.967 839.43ZM752.442 737.696C742.376 747.763 737.337 760.156 737.337 774.75H741.337C741.337 761.184 745.978 749.817 755.271 740.524L752.442 737.696ZM737.337 774.75C737.337 789.343 742.374 801.838 752.427 812.118L755.287 809.322C745.979 799.802 741.337 788.317 741.337 774.75H737.337ZM752.458 812.15C762.733 822.196 775.115 827.24 789.497 827.24V823.24C776.159 823.24 764.781 818.604 755.255 809.29L752.458 812.15ZM789.497 827.24C804.091 827.24 816.384 822.2 826.237 812.118L823.376 809.322C814.309 818.6 803.063 823.24 789.497 823.24V827.24ZM826.253 812.102C836.079 801.818 840.997 789.329 840.997 774.75H836.997C836.997 788.331 832.454 799.822 823.361 809.338L826.253 812.102ZM840.997 774.75C840.997 760.171 836.078 747.782 826.237 737.712L823.376 740.508C832.455 749.798 836.997 761.169 836.997 774.75H840.997ZM826.237 737.712C816.384 727.63 804.091 722.59 789.497 722.59V726.59C803.063 726.59 814.309 731.23 823.376 740.508L826.237 737.712ZM789.497 722.59C775.115 722.59 762.733 727.634 752.458 737.68L755.255 740.54C764.781 731.226 776.159 726.59 789.497 726.59V722.59ZM767.057 848.98C753.579 848.98 742.356 843.75 733.263 833.176L730.23 835.784C740.057 847.21 752.374 852.98 767.057 852.98V848.98ZM733.263 833.176C724.158 822.588 719.557 809.321 719.557 793.23H715.557C715.557 810.139 720.415 824.372 730.23 835.784L733.263 833.176ZM719.557 793.23C719.557 776.95 724.583 761.273 734.727 746.165L731.406 743.935C720.87 759.627 715.557 776.07 715.557 793.23H719.557ZM734.734 746.154C744.929 730.753 756.805 719.337 770.338 711.818L768.395 708.322C754.208 716.203 741.884 728.107 731.399 743.946L734.734 746.154ZM770.338 711.818C783.939 704.262 797.578 700.52 811.277 700.52V696.52C796.816 696.52 782.514 700.478 768.395 708.322L770.338 711.818ZM811.277 700.52C824.754 700.52 835.977 705.75 845.07 716.324L848.103 713.716C838.276 702.29 825.959 696.52 811.277 696.52V700.52ZM845.07 716.324C854.171 726.907 858.777 740.281 858.777 756.6H862.777C862.777 739.479 857.922 725.133 848.103 713.716L845.07 716.324ZM858.777 756.6C858.777 772.656 853.752 788.338 843.599 803.676L846.934 805.884C857.461 789.982 862.777 773.544 862.777 756.6H858.777ZM843.606 803.665C833.413 818.847 821.535 830.159 807.995 837.682L809.938 841.178C824.118 833.301 836.441 821.513 846.927 805.895L843.606 803.665ZM807.995 837.682C794.394 845.238 780.756 848.98 767.057 848.98V852.98C781.518 852.98 795.819 849.022 809.938 841.178L807.995 837.682ZM891.59 834.48L893.107 833.176L891.59 834.48ZM885.98 755.94L887.8 756.77L887.8 756.77L885.98 755.94ZM936.14 705.78L936.971 707.599L936.98 707.595L936.988 707.591L936.14 705.78ZM998.18 710.73L996.858 712.231L1000.24 715.21L1000.18 710.703L998.18 710.73ZM995.87 656.61L993.875 656.743L993.875 656.745L995.87 656.61ZM997.85 606.78L999.412 608.029L999.432 608.005L999.45 607.98L997.85 606.78ZM1018.64 607.11L1017.05 608.325L1017.09 608.377L1017.14 608.427L1018.64 607.11ZM1020.29 663.87L1018.3 663.692L1018.3 663.701L1018.3 663.71L1020.29 663.87ZM1019.96 776.4L1017.97 776.614L1017.97 776.617L1019.96 776.4ZM1024.91 805.11L1023.02 805.767L1023.03 805.791L1023.04 805.816L1024.91 805.11ZM997.52 813.69L999.514 813.531L999.096 808.282L995.924 812.485L997.52 813.69ZM965.84 841.08L966.785 842.843L965.84 841.08ZM913.7 739.11L912.302 737.68L912.294 737.688L912.286 737.696L913.7 739.11ZM913.7 810.72L912.27 812.118L912.286 812.134L912.302 812.15L913.7 810.72ZM984.65 810.72L986.081 812.118L986.089 812.11L986.096 812.102L984.65 810.72ZM985.97 737.79L984.538 739.186L984.538 739.186L985.97 737.79ZM926.57 848.98C913.324 848.98 902.207 843.758 893.107 833.176L890.074 835.784C899.894 847.202 912.097 852.98 926.57 852.98V848.98ZM893.107 833.176C883.954 822.533 879.4 810.344 879.4 796.53H875.4C875.4 811.316 880.307 824.427 890.074 835.784L893.107 833.176ZM879.4 796.53C879.4 782.281 882.205 769.036 887.8 756.77L884.161 755.11C878.316 767.924 875.4 781.739 875.4 796.53H879.4ZM887.8 756.77C893.426 744.435 900.54 734.323 909.118 726.388L906.402 723.452C897.381 731.797 889.974 742.365 884.161 755.11L887.8 756.77ZM909.118 726.388C917.775 718.381 927.059 712.124 936.971 707.599L935.31 703.961C924.982 708.675 915.346 715.179 906.402 723.452L909.118 726.388ZM936.988 707.591C947.079 702.868 957.351 700.52 967.82 700.52V696.52C956.73 696.52 945.882 699.012 935.293 703.969L936.988 707.591ZM967.82 700.52C978.275 700.52 987.937 704.371 996.858 712.231L999.502 709.229C989.944 700.809 979.366 696.52 967.82 696.52V700.52ZM1000.18 710.703C999.96 694.161 999.188 676.085 997.866 656.475L993.875 656.745C995.193 676.295 995.961 694.299 996.181 710.757L1000.18 710.703ZM997.866 656.477C996.544 636.653 995.89 624.299 995.89 619.32H991.89C991.89 624.461 992.556 636.967 993.875 656.743L997.866 656.477ZM995.89 619.32C995.89 614.621 997.109 610.908 999.412 608.029L996.289 605.531C993.312 609.252 991.89 613.899 991.89 619.32H995.89ZM999.45 607.98C1001.74 604.933 1004.57 603.5 1008.08 603.5V599.5C1003.23 599.5 999.245 601.587 996.25 605.58L999.45 607.98ZM1008.08 603.5C1011.55 603.5 1014.52 605.008 1017.05 608.325L1020.23 605.895C1017.05 601.732 1012.97 599.5 1008.08 599.5V603.5ZM1017.14 608.427C1019.81 611.48 1021.26 615.798 1021.26 621.63H1025.26C1025.26 615.142 1023.63 609.78 1020.15 605.793L1017.14 608.427ZM1021.26 621.63C1021.26 627.462 1020.28 641.443 1018.3 663.692L1022.28 664.047C1024.26 641.857 1025.26 627.678 1025.26 621.63H1021.26ZM1018.3 663.71C1016.53 685.756 1015.65 706.49 1015.65 725.91H1019.65C1019.65 706.61 1020.53 685.984 1022.28 664.029L1018.3 663.71ZM1015.65 725.91C1015.65 745.319 1016.42 762.224 1017.97 776.614L1021.95 776.186C1020.42 761.976 1019.65 745.221 1019.65 725.91H1015.65ZM1017.97 776.617C1019.51 790.68 1021.18 800.464 1023.02 805.767L1026.8 804.453C1025.12 799.636 1023.49 790.28 1021.95 776.183L1017.97 776.617ZM1023.04 805.816C1025.56 812.496 1027.43 818.047 1028.68 822.48C1029.93 826.956 1030.5 830.147 1030.5 832.17H1034.5C1034.5 829.573 1033.8 825.944 1032.53 821.4C1031.24 816.813 1029.32 811.144 1026.78 804.404L1023.04 805.816ZM1030.5 832.17C1030.5 838.238 1029.32 842.422 1027.29 845.055C1025.33 847.59 1022.35 848.98 1017.98 848.98V852.98C1023.29 852.98 1027.57 851.235 1030.45 847.5C1033.26 843.863 1034.5 838.642 1034.5 832.17H1030.5ZM1017.98 848.98C1013.05 848.98 1009.02 846.434 1005.87 840.695C1002.67 834.85 1000.5 825.862 999.514 813.531L995.527 813.849C996.525 826.378 998.754 836.035 1002.37 842.62C1006.04 849.311 1011.25 852.98 1017.98 852.98V848.98ZM995.924 812.485C987.29 823.925 976.949 832.86 964.896 839.317L966.785 842.843C979.372 836.1 990.15 826.775 999.117 814.895L995.924 812.485ZM964.896 839.317C952.864 845.763 940.098 848.98 926.57 848.98V852.98C940.763 852.98 954.177 849.597 966.785 842.843L964.896 839.317ZM912.286 737.696C902.219 747.763 897.18 760.156 897.18 774.75H901.18C901.18 761.184 905.821 749.817 915.115 740.524L912.286 737.696ZM897.18 774.75C897.18 789.343 902.218 801.838 912.27 812.118L915.13 809.322C905.823 799.802 901.18 788.317 901.18 774.75H897.18ZM912.302 812.15C922.576 822.196 934.958 827.24 949.34 827.24V823.24C936.002 823.24 924.625 818.604 915.099 809.29L912.302 812.15ZM949.34 827.24C963.935 827.24 976.228 822.2 986.081 812.118L983.22 809.322C974.153 818.6 962.906 823.24 949.34 823.24V827.24ZM986.096 812.102C995.946 801.794 1000.84 788.853 1000.84 773.43H996.84C996.84 787.927 992.274 799.846 983.204 809.338L986.096 812.102ZM1000.84 773.43C1000.84 758.069 996.423 745.645 987.402 736.394L984.538 739.186C992.678 747.535 996.84 758.871 996.84 773.43H1000.84ZM987.402 736.394C978.367 727.126 966.034 722.59 950.66 722.59V726.59C965.206 726.59 976.414 730.854 984.538 739.186L987.402 736.394ZM950.66 722.59C935.435 722.59 922.602 727.609 912.302 737.68L915.099 740.54C924.599 731.251 936.406 726.59 950.66 726.59V722.59ZM1071.41 834.48L1072.93 833.176L1071.41 834.48ZM1065.8 755.94L1067.62 756.77L1067.62 756.77L1065.8 755.94ZM1115.96 705.78L1116.8 707.599L1116.8 707.595L1116.81 707.591L1115.96 705.78ZM1178 710.73L1176.68 712.231L1180.06 715.21L1180 710.703L1178 710.73ZM1175.69 656.61L1173.7 656.743L1173.7 656.745L1175.69 656.61ZM1177.67 606.78L1179.24 608.029L1179.26 608.005L1179.27 607.98L1177.67 606.78ZM1198.46 607.11L1196.88 608.325L1196.92 608.377L1196.96 608.427L1198.46 607.11ZM1200.11 663.87L1198.12 663.692L1198.12 663.701L1198.12 663.71L1200.11 663.87ZM1199.78 776.4L1197.8 776.614L1197.8 776.617L1199.78 776.4ZM1204.73 805.11L1202.85 805.767L1202.85 805.791L1202.86 805.816L1204.73 805.11ZM1177.34 813.69L1179.34 813.531L1178.92 808.282L1175.75 812.485L1177.34 813.69ZM1145.66 841.08L1146.61 842.843L1145.66 841.08ZM1093.52 739.11L1092.13 737.68L1092.12 737.688L1092.11 737.696L1093.52 739.11ZM1093.52 810.72L1092.09 812.118L1092.11 812.134L1092.13 812.15L1093.52 810.72ZM1164.47 810.72L1165.9 812.118L1165.91 812.11L1165.92 812.102L1164.47 810.72ZM1165.79 737.79L1164.36 739.186L1164.36 739.186L1165.79 737.79ZM1106.39 848.98C1093.15 848.98 1082.03 843.758 1072.93 833.176L1069.9 835.784C1079.72 847.202 1091.92 852.98 1106.39 852.98V848.98ZM1072.93 833.176C1063.78 822.533 1059.22 810.344 1059.22 796.53H1055.22C1055.22 811.316 1060.13 824.427 1069.9 835.784L1072.93 833.176ZM1059.22 796.53C1059.22 782.281 1062.03 769.036 1067.62 756.77L1063.98 755.11C1058.14 767.924 1055.22 781.739 1055.22 796.53H1059.22ZM1067.62 756.77C1073.25 744.435 1080.36 734.323 1088.94 726.388L1086.23 723.452C1077.2 731.797 1069.8 742.365 1063.98 755.11L1067.62 756.77ZM1088.94 726.388C1097.6 718.381 1106.88 712.124 1116.8 707.599L1115.13 703.961C1104.81 708.675 1095.17 715.179 1086.23 723.452L1088.94 726.388ZM1116.81 707.591C1126.9 702.868 1137.17 700.52 1147.64 700.52V696.52C1136.55 696.52 1125.71 699.012 1115.12 703.969L1116.81 707.591ZM1147.64 700.52C1158.1 700.52 1167.76 704.371 1176.68 712.231L1179.33 709.229C1169.77 700.809 1159.19 696.52 1147.64 696.52V700.52ZM1180 710.703C1179.78 694.161 1179.01 676.085 1177.69 656.475L1173.7 656.745C1175.02 676.295 1175.79 694.299 1176 710.757L1180 710.703ZM1177.69 656.477C1176.37 636.653 1175.71 624.299 1175.71 619.32H1171.71C1171.71 624.461 1172.38 636.967 1173.7 656.743L1177.69 656.477ZM1175.71 619.32C1175.71 614.621 1176.93 610.908 1179.24 608.029L1176.11 605.531C1173.14 609.252 1171.71 613.899 1171.71 619.32H1175.71ZM1179.27 607.98C1181.56 604.933 1184.39 603.5 1187.9 603.5V599.5C1183.06 599.5 1179.07 601.587 1176.07 605.58L1179.27 607.98ZM1187.9 603.5C1191.38 603.5 1194.34 605.008 1196.88 608.325L1200.05 605.895C1196.87 601.732 1192.79 599.5 1187.9 599.5V603.5ZM1196.96 608.427C1199.63 611.48 1201.08 615.798 1201.08 621.63H1205.08C1205.08 615.142 1203.46 609.78 1199.97 605.793L1196.96 608.427ZM1201.08 621.63C1201.08 627.462 1200.11 641.443 1198.12 663.692L1202.11 664.047C1204.08 641.857 1205.08 627.678 1205.08 621.63H1201.08ZM1198.12 663.71C1196.36 685.756 1195.47 706.49 1195.47 725.91H1199.47C1199.47 706.61 1200.35 685.984 1202.11 664.029L1198.12 663.71ZM1195.47 725.91C1195.47 745.319 1196.25 762.224 1197.8 776.614L1201.77 776.186C1200.24 761.976 1199.47 745.221 1199.47 725.91H1195.47ZM1197.8 776.617C1199.33 790.68 1201 800.464 1202.85 805.767L1206.62 804.453C1204.95 799.636 1203.31 790.28 1201.77 776.183L1197.8 776.617ZM1202.86 805.816C1205.38 812.496 1207.26 818.047 1208.5 822.48C1209.76 826.956 1210.32 830.147 1210.32 832.17H1214.32C1214.32 829.573 1213.63 825.944 1212.35 821.4C1211.07 816.813 1209.15 811.144 1206.61 804.404L1202.86 805.816ZM1210.32 832.17C1210.32 838.238 1209.14 842.422 1207.11 845.055C1205.15 847.59 1202.18 848.98 1197.8 848.98V852.98C1203.11 852.98 1207.39 851.235 1210.28 847.5C1213.09 843.863 1214.32 838.642 1214.32 832.17H1210.32ZM1197.8 848.98C1192.87 848.98 1188.85 846.434 1185.7 840.695C1182.49 834.85 1180.32 825.862 1179.34 813.531L1175.35 813.849C1176.35 826.378 1178.58 836.035 1182.19 842.62C1185.86 849.311 1191.07 852.98 1197.8 852.98V848.98ZM1175.75 812.485C1167.11 823.925 1156.77 832.86 1144.72 839.317L1146.61 842.843C1159.2 836.1 1169.97 826.775 1178.94 814.895L1175.75 812.485ZM1144.72 839.317C1132.69 845.763 1119.92 848.98 1106.39 848.98V852.98C1120.59 852.98 1134 849.597 1146.61 842.843L1144.72 839.317ZM1092.11 737.696C1082.04 747.763 1077 760.156 1077 774.75H1081C1081 761.184 1085.65 749.817 1094.94 740.524L1092.11 737.696ZM1077 774.75C1077 789.343 1082.04 801.838 1092.09 812.118L1094.95 809.322C1085.65 799.802 1081 788.317 1081 774.75H1077ZM1092.13 812.15C1102.4 822.196 1114.78 827.24 1129.16 827.24V823.24C1115.83 823.24 1104.45 818.604 1094.92 809.29L1092.13 812.15ZM1129.16 827.24C1143.76 827.24 1156.05 822.2 1165.9 812.118L1163.04 809.322C1153.98 818.6 1142.73 823.24 1129.16 823.24V827.24ZM1165.92 812.102C1175.77 801.794 1180.66 788.853 1180.66 773.43H1176.66C1176.66 787.927 1172.1 799.846 1163.03 809.338L1165.92 812.102ZM1180.66 773.43C1180.66 758.069 1176.25 745.645 1167.23 736.394L1164.36 739.186C1172.5 747.535 1176.66 758.871 1176.66 773.43H1180.66ZM1167.23 736.394C1158.19 727.126 1145.86 722.59 1130.48 722.59V726.59C1145.03 726.59 1156.24 730.854 1164.36 739.186L1167.23 736.394ZM1130.48 722.59C1115.26 722.59 1102.43 727.609 1092.13 737.68L1094.92 740.54C1104.42 731.251 1116.23 726.59 1130.48 726.59V722.59ZM1354.86 804.78L1352.98 805.455L1352.99 805.48L1352.99 805.505L1354.86 804.78ZM1364.43 820.95L1362.8 822.107L1362.82 822.138L1362.84 822.167L1364.43 820.95ZM1368.72 847.35L1370.2 848.695L1370.23 848.663L1370.26 848.63L1368.72 847.35ZM1335.72 822.93L1333.84 823.613L1333.84 823.624L1333.85 823.635L1335.72 822.93ZM1333.08 815.67L1334.96 814.987L1333.33 810.501L1331.27 814.809L1333.08 815.67ZM1254.54 840.42L1253.12 841.834L1253.15 841.856L1253.17 841.876L1254.54 840.42ZM1305.69 750.66L1305.78 752.658L1309.05 752.502L1307.43 749.668L1305.69 750.66ZM1290.84 733.5L1289.64 735.1L1289.68 735.128L1289.71 735.154L1290.84 733.5ZM1276.32 726.57L1276.62 724.592L1276.62 724.592L1276.32 726.57ZM1263.78 725.58L1263.66 727.577L1263.72 727.58H1263.78V725.58ZM1256.85 702.81L1255.63 701.221L1255.61 701.239L1255.59 701.258L1256.85 702.81ZM1312.29 719.97L1313.72 718.578L1313.72 718.578L1312.29 719.97ZM1348.59 787.29L1346.69 787.931L1346.7 787.948L1346.71 787.965L1348.59 787.29ZM1275.99 776.07L1274.71 774.529L1274.7 774.54L1274.69 774.551L1275.99 776.07ZM1275 817.65L1273.56 819.036L1273.58 819.064L1273.61 819.092L1275 817.65ZM1315.92 817.65L1317.31 819.092L1317.32 819.078L1317.33 819.064L1315.92 817.65ZM1321.53 782.34L1319.68 783.097L1319.68 783.113L1319.69 783.128L1321.53 782.34ZM1317.9 773.43L1319.76 772.687L1319.51 772.073L1318.95 771.727L1317.9 773.43ZM1352.99 805.505C1354.63 809.703 1357.94 815.256 1362.8 822.107L1366.06 819.793C1361.24 813.004 1358.17 807.777 1356.72 804.055L1352.99 805.505ZM1362.84 822.167C1367.86 828.708 1370.02 833.642 1370.02 837.12H1374.02C1374.02 832.238 1371.12 826.392 1366.02 819.733L1362.84 822.167ZM1370.02 837.12C1370.02 840.937 1369.02 843.862 1367.18 846.07L1370.26 848.63C1372.82 845.558 1374.02 841.663 1374.02 837.12H1370.02ZM1367.24 846.005C1365.47 847.946 1363.07 848.98 1359.81 848.98V852.98C1364.02 852.98 1367.56 851.594 1370.2 848.695L1367.24 846.005ZM1359.81 848.98C1356.07 848.98 1352.32 847.067 1348.54 842.664C1344.74 838.242 1341.07 831.475 1337.59 822.225L1333.85 823.635C1337.4 833.085 1341.27 840.343 1345.5 845.271C1349.75 850.218 1354.52 852.98 1359.81 852.98V848.98ZM1337.6 822.247L1334.96 814.987L1331.2 816.353L1333.84 823.613L1337.6 822.247ZM1331.27 814.809C1325.77 826.35 1318.96 834.873 1310.9 840.514C1302.85 846.142 1293.44 848.98 1282.59 848.98V852.98C1294.18 852.98 1304.41 849.933 1313.19 843.791C1321.95 837.662 1329.16 828.53 1334.88 816.531L1331.27 814.809ZM1282.59 848.98C1271.83 848.98 1262.98 845.621 1255.91 838.964L1253.17 841.876C1261.05 849.299 1270.91 852.98 1282.59 852.98V848.98ZM1255.95 839.006C1249.09 832.141 1245.65 823.639 1245.65 813.36H1241.65C1241.65 824.641 1245.47 834.179 1253.12 841.834L1255.95 839.006ZM1245.65 813.36C1245.65 797.149 1251.17 783.231 1262.26 771.504L1259.36 768.756C1247.56 781.229 1241.65 796.131 1241.65 813.36H1245.65ZM1262.26 771.504C1273.31 759.823 1287.76 753.516 1305.78 752.658L1305.59 748.662C1286.66 749.564 1271.19 756.237 1259.36 768.756L1262.26 771.504ZM1307.43 749.668C1302.92 741.788 1297.78 735.804 1291.96 731.846L1289.71 735.154C1294.89 738.676 1299.66 744.132 1303.95 751.652L1307.43 749.668ZM1292.04 731.9C1286.61 727.83 1281.46 725.319 1276.62 724.592L1276.02 728.548C1279.97 729.141 1284.51 731.25 1289.64 735.1L1292.04 731.9ZM1276.62 724.592C1272.13 723.919 1267.85 723.58 1263.78 723.58V727.58C1267.63 727.58 1271.71 727.901 1276.02 728.548L1276.62 724.592ZM1263.9 723.583C1260.39 723.377 1257.82 722.561 1256.02 721.302L1253.72 724.578C1256.32 726.399 1259.69 727.343 1263.66 727.577L1263.9 723.583ZM1256.02 721.302C1254.62 720.325 1253.57 718.198 1253.57 714.03H1249.57C1249.57 718.662 1250.72 722.475 1253.72 724.578L1256.02 721.302ZM1253.57 714.03C1253.57 709.999 1255.07 706.834 1258.11 704.362L1255.59 701.258C1251.59 704.506 1249.57 708.821 1249.57 714.03H1253.57ZM1258.06 704.399C1261.43 701.826 1265.39 700.52 1270.05 700.52V696.52C1264.58 696.52 1259.75 698.074 1255.63 701.221L1258.06 704.399ZM1270.05 700.52C1283.62 700.52 1297.22 707.295 1310.85 721.362L1313.72 718.578C1299.64 704.045 1285.07 696.52 1270.05 696.52V700.52ZM1310.85 721.362C1324.42 735.356 1336.4 757.477 1346.69 787.931L1350.48 786.649C1340.1 755.943 1327.88 733.184 1313.72 718.578L1310.85 721.362ZM1346.71 787.965L1352.98 805.455L1356.74 804.105L1350.47 786.615L1346.71 787.965ZM1297.44 766.15C1289.03 766.15 1281.43 768.967 1274.71 774.529L1277.26 777.611C1283.3 772.613 1290.01 770.15 1297.44 770.15V766.15ZM1274.69 774.551C1268.07 780.225 1264.75 787.607 1264.75 796.53H1268.75C1268.75 788.733 1271.59 782.475 1277.29 777.589L1274.69 774.551ZM1264.75 796.53C1264.75 805.376 1267.68 812.922 1273.56 819.036L1276.44 816.264C1271.32 810.938 1268.75 804.404 1268.75 796.53H1264.75ZM1273.61 819.092C1279.7 824.949 1287.02 827.9 1295.46 827.9V823.9C1288.06 823.9 1281.73 821.351 1276.39 816.208L1273.61 819.092ZM1295.46 827.9C1303.9 827.9 1311.21 824.949 1317.31 819.092L1314.53 816.208C1309.18 821.351 1302.86 823.9 1295.46 823.9V827.9ZM1317.33 819.064C1323.41 812.99 1326.5 805.78 1326.5 797.52H1322.5C1322.5 804.66 1319.87 810.87 1314.5 816.236L1317.33 819.064ZM1326.5 797.52C1326.5 791.775 1325.46 786.444 1323.37 781.552L1319.69 783.128C1321.55 787.476 1322.5 792.265 1322.5 797.52H1326.5ZM1323.38 781.583C1321.4 776.74 1320.19 773.778 1319.76 772.687L1316.04 774.173C1316.49 775.282 1317.7 778.26 1319.68 783.097L1323.38 781.583ZM1318.95 771.727C1312.86 767.98 1305.66 766.15 1297.44 766.15V770.15C1305.06 770.15 1311.5 771.84 1316.85 775.133L1318.95 771.727Z" fill="black" mask="url(#path-3-inside-2_10_45)"/>
</svg>
